<svg xmlns="http://www.w3.org/2000/svg" width="1440" height="900"><path d="M693,470L602,461L613,530Z" fill="#fc8f41" stroke="#fc8f41" stroke-width="1.51"/><path d="M693,470L635,380L602,461Z" fill="#fe9547" stroke="#fe9547" stroke-width="1.51"/><path d="M602,461L517,516L613,530Z" fill="#fc9246" stroke="#fc9246" stroke-width="1.51"/><path d="M570,384L539,449L602,461Z" fill="#fd9b50" stroke="#fd9b50" stroke-width="1.51"/><path d="M613,530L689,605L693,470Z" fill="#fa8738" stroke="#fa8738" stroke-width="1.51"/><path d="M539,648L625,609L613,530Z" fill="#f88639" stroke="#f88639" stroke-width="1.51"/><path d="M625,609L689,605L613,530Z" fill="#f98334" stroke="#f98334" stroke-width="1.51"/><path d="M635,380L570,384L602,461Z" fill="#fe9b50" stroke="#fe9b50" stroke-width="1.51"/><path d="M689,605L750,566L693,470Z" fill="#f98231" stroke="#f98231" stroke-width="1.51"/><path d="M539,449L517,516L602,461Z" fill="#fc974c" stroke="#fc974c" stroke-width="1.51"/><path d="M693,470L689,348L635,380Z" fill="#fe974a" stroke="#fe974a" stroke-width="1.51"/><path d="M635,380L600,297L570,384Z" fill="#fea159" stroke="#fea159" stroke-width="1.51"/><path d="M795,353L689,348L693,470Z" fill="#fe9446" stroke="#fe9446" stroke-width="1.51"/><path d="M750,566L839,438L693,470Z" fill="#fb8534" stroke="#fb8534" stroke-width="1.51"/><path d="M794,614L819,563L750,566Z" fill="#f67825" stroke="#f67825" stroke-width="1.51"/><path d="M517,516L539,648L613,530Z" fill="#f98c41" stroke="#f98c41" stroke-width="1.51"/><path d="M625,609L696,698L689,605Z" fill="#f47b2d" stroke="#f47b2d" stroke-width="1.51"/><path d="M539,449L452,472L517,516Z" fill="#fd9a51" stroke="#fd9a51" stroke-width="1.51"/><path d="M517,516L480,633L539,648Z" fill="#f98c42" stroke="#f98c42" stroke-width="1.51"/><path d="M422,374L452,472L539,449Z" fill="#fea35b" stroke="#fea35b" stroke-width="1.51"/><path d="M696,698L794,614L689,605Z" fill="#f47627" stroke="#f47627" stroke-width="1.51"/><path d="M689,605L794,614L750,566Z" fill="#f77927" stroke="#f77927" stroke-width="1.51"/><path d="M689,348L600,297L635,380Z" fill="#fea057" stroke="#fea057" stroke-width="1.51"/><path d="M570,384L422,374L539,449Z" fill="#fda35b" stroke="#fda35b" stroke-width="1.51"/><path d="M819,563L839,438L750,566Z" fill="#f87e2c" stroke="#f87e2c" stroke-width="1.51"/><path d="M839,438L795,353L693,470Z" fill="#fc8c3c" stroke="#fc8c3c" stroke-width="1.51"/><path d="M689,348L731,262L600,297Z" fill="#fda159" stroke="#fda159" stroke-width="1.51"/><path d="M452,472L442,533L517,516Z" fill="#fc9a52" stroke="#fc9a52" stroke-width="1.51"/><path d="M613,729L696,698L625,609Z" fill="#f2792e" stroke="#f2792e" stroke-width="1.51"/><path d="M442,533L480,633L517,516Z" fill="#fa934b" stroke="#fa934b" stroke-width="1.51"/><path d="M539,648L613,729L625,609Z" fill="#f37f35" stroke="#f37f35" stroke-width="1.51"/><path d="M600,297L544,292L570,384Z" fill="#fda761" stroke="#fda761" stroke-width="1.51"/><path d="M507,738L613,729L539,648Z" fill="#f07e38" stroke="#f07e38" stroke-width="1.51"/><path d="M795,353L731,262L689,348Z" fill="#fd9a4f" stroke="#fd9a4f" stroke-width="1.51"/><path d="M600,297L657,197L544,292Z" fill="#feac69" stroke="#feac69" stroke-width="1.51"/><path d="M819,563L888,527L839,438Z" fill="#f77c29" stroke="#f77c29" stroke-width="1.51"/><path d="M839,438L902,381L795,353Z" fill="#fa8a3b" stroke="#fa8a3b" stroke-width="1.51"/><path d="M908,633L888,527L819,563Z" fill="#f4721e" stroke="#f4721e" stroke-width="1.51"/><path d="M888,527L883,427L839,438Z" fill="#f97f2d" stroke="#f97f2d" stroke-width="1.51"/><path d="M795,353L784,244L731,262Z" fill="#fc9c53" stroke="#fc9c53" stroke-width="1.51"/><path d="M544,292L422,374L570,384Z" fill="#fea963" stroke="#fea963" stroke-width="1.51"/><path d="M452,472L359,509L442,533Z" fill="#fd9f59" stroke="#fd9f59" stroke-width="1.51"/><path d="M422,374L388,422L452,472Z" fill="#fea863" stroke="#fea863" stroke-width="1.51"/><path d="M454,723L507,738L480,633Z" fill="#f18441" stroke="#f18441" stroke-width="1.51"/><path d="M883,427L902,381L839,438Z" fill="#f98435" stroke="#f98435" stroke-width="1.51"/><path d="M995,441L902,381L883,427Z" fill="#f78030" stroke="#f78030" stroke-width="1.51"/><path d="M731,262L657,197L600,297Z" fill="#fea864" stroke="#fea864" stroke-width="1.51"/><path d="M880,272L784,244L795,353Z" fill="#fc974f" stroke="#fc974f" stroke-width="1.51"/><path d="M480,633L507,738L539,648Z" fill="#f3853e" stroke="#f3853e" stroke-width="1.51"/><path d="M338,631L480,633L442,533Z" fill="#fa934e" stroke="#fa934e" stroke-width="1.51"/><path d="M388,422L359,509L452,472Z" fill="#ffa460" stroke="#ffa460" stroke-width="1.51"/><path d="M696,698L787,742L794,614Z" fill="#ef6f21" stroke="#ef6f21" stroke-width="1.51"/><path d="M794,614L908,633L819,563Z" fill="#f4711d" stroke="#f4711d" stroke-width="1.51"/><path d="M735,838L787,742L696,698Z" fill="#e86920" stroke="#e86920" stroke-width="1.51"/><path d="M628,780L696,698L613,729Z" fill="#ed732c" stroke="#ed732c" stroke-width="1.51"/><path d="M567,809L628,780L613,729Z" fill="#e87330" stroke="#e87330" stroke-width="1.51"/><path d="M422,374L371,388L388,422Z" fill="#ffad6b" stroke="#ffad6b" stroke-width="1.51"/><path d="M388,422L244,437L359,509Z" fill="#ffab6a" stroke="#ffab6a" stroke-width="1.51"/><path d="M420,273L371,388L422,374Z" fill="#feb272" stroke="#feb272" stroke-width="1.51"/><path d="M712,159L657,197L731,262Z" fill="#ffab68" stroke="#ffab68" stroke-width="1.51"/><path d="M544,292L420,273L422,374Z" fill="#feb16f" stroke="#feb16f" stroke-width="1.51"/><path d="M884,696L908,633L794,614Z" fill="#ef6a19" stroke="#ef6a19" stroke-width="1.51"/><path d="M888,527L992,513L883,427Z" fill="#f67825" stroke="#f67825" stroke-width="1.51"/><path d="M507,738L567,809L613,729Z" fill="#ea7835" stroke="#ea7835" stroke-width="1.51"/><path d="M338,631L454,723L480,633Z" fill="#f58d4a" stroke="#f58d4a" stroke-width="1.51"/><path d="M448,181L420,273L544,292Z" fill="#feb779" stroke="#feb779" stroke-width="1.51"/><path d="M787,742L884,696L794,614Z" fill="#ee691b" stroke="#ee691b" stroke-width="1.51"/><path d="M902,381L880,272L795,353Z" fill="#fa8f43" stroke="#fa8f43" stroke-width="1.51"/><path d="M784,244L712,159L731,262Z" fill="#ffa562" stroke="#ffa562" stroke-width="1.51"/><path d="M628,780L735,838L696,698Z" fill="#e76c26" stroke="#e76c26" stroke-width="1.51"/><path d="M451,841L567,809L507,738Z" fill="#e37939" stroke="#e37939" stroke-width="1.51"/><path d="M508,148L448,181L544,292Z" fill="#feba7e" stroke="#feba7e" stroke-width="1.51"/><path d="M837,196L712,159L784,244Z" fill="#fea563" stroke="#fea563" stroke-width="1.51"/><path d="M359,509L338,631L442,533Z" fill="#fc9b58" stroke="#fc9b58" stroke-width="1.51"/><path d="M247,521L338,631L359,509Z" fill="#fda161" stroke="#fda161" stroke-width="1.51"/><path d="M1013,607L992,513L908,633Z" fill="#f06814" stroke="#f06814" stroke-width="1.51"/><path d="M908,633L992,513L888,527Z" fill="#f36f1a" stroke="#f36f1a" stroke-width="1.51"/><path d="M902,381L1008,266L880,272Z" fill="#f98c42" stroke="#f98c42" stroke-width="1.51"/><path d="M880,272L837,196L784,244Z" fill="#fd9c57" stroke="#fd9c57" stroke-width="1.51"/><path d="M992,513L995,441L883,427Z" fill="#f67927" stroke="#f67927" stroke-width="1.51"/><path d="M880,272L903,208L837,196Z" fill="#fc9b56" stroke="#fc9b56" stroke-width="1.51"/><path d="M615,899L735,838L628,780Z" fill="#da6a28" stroke="#da6a28" stroke-width="1.51"/><path d="M787,742L876,811L884,696Z" fill="#e76014" stroke="#e76014" stroke-width="1.51"/><path d="M508,148L544,292L657,197Z" fill="#feb475" stroke="#feb475" stroke-width="1.51"/><path d="M420,273L365,245L371,388Z" fill="#feb87b" stroke="#feb87b" stroke-width="1.51"/><path d="M650,107L508,148L657,197Z" fill="#ffb87d" stroke="#ffb87d" stroke-width="1.51"/><path d="M371,388L244,437L388,422Z" fill="#ffaf6f" stroke="#ffaf6f" stroke-width="1.51"/><path d="M364,208L365,245L420,273Z" fill="#febf86" stroke="#febf86" stroke-width="1.51"/><path d="M995,441L1008,371L902,381Z" fill="#f67f31" stroke="#f67f31" stroke-width="1.51"/><path d="M1076,433L1008,371L995,441Z" fill="#f3792d" stroke="#f3792d" stroke-width="1.51"/><path d="M735,81L650,107L712,159Z" fill="#ffb378" stroke="#ffb378" stroke-width="1.51"/><path d="M1008,266L903,208L880,272Z" fill="#fa944d" stroke="#fa944d" stroke-width="1.51"/><path d="M712,159L650,107L657,197Z" fill="#ffb275" stroke="#ffb275" stroke-width="1.51"/><path d="M818,119L712,159L837,196Z" fill="#feaa6a" stroke="#feaa6a" stroke-width="1.51"/><path d="M735,838L831,826L787,742Z" fill="#df621b" stroke="#df621b" stroke-width="1.51"/><path d="M985,726L1013,607L908,633Z" fill="#ea600e" stroke="#ea600e" stroke-width="1.51"/><path d="M992,513L1076,433L995,441Z" fill="#f27424" stroke="#f27424" stroke-width="1.51"/><path d="M985,726L908,633L884,696Z" fill="#eb600e" stroke="#eb600e" stroke-width="1.51"/><path d="M338,631L340,732L454,723Z" fill="#f38d4e" stroke="#f38d4e" stroke-width="1.51"/><path d="M454,723L451,841L507,738Z" fill="#e97f3f" stroke="#e97f3f" stroke-width="1.51"/><path d="M831,826L876,811L787,742Z" fill="#df5f17" stroke="#df5f17" stroke-width="1.51"/><path d="M254,299L264,379L371,388Z" fill="#ffb97e" stroke="#ffb97e" stroke-width="1.51"/><path d="M338,631L250,658L340,732Z" fill="#f59558" stroke="#f59558" stroke-width="1.51"/><path d="M448,181L364,208L420,273Z" fill="#febf86" stroke="#febf86" stroke-width="1.51"/><path d="M365,245L254,299L371,388Z" fill="#febb80" stroke="#febb80" stroke-width="1.51"/><path d="M431,88L364,208L448,181Z" fill="#fec691" stroke="#fec691" stroke-width="1.51"/><path d="M244,437L247,521L359,509Z" fill="#ffab6c" stroke="#ffab6c" stroke-width="1.51"/><path d="M339,826L451,841L454,723Z" fill="#e58146" stroke="#e58146" stroke-width="1.51"/><path d="M567,809L615,899L628,780Z" fill="#dd6f2e" stroke="#dd6f2e" stroke-width="1.51"/><path d="M264,379L244,437L371,388Z" fill="#ffb477" stroke="#ffb477" stroke-width="1.51"/><path d="M871,94L818,119L837,196Z" fill="#fea769" stroke="#fea769" stroke-width="1.51"/><path d="M567,909L615,899L567,809Z" fill="#d66e30" stroke="#d66e30" stroke-width="1.51"/><path d="M735,838L748,890L831,826Z" fill="#d6601c" stroke="#d6601c" stroke-width="1.51"/><path d="M831,826L892,910L876,811Z" fill="#d45813" stroke="#d45813" stroke-width="1.51"/><path d="M615,899L748,890L735,838Z" fill="#d46423" stroke="#d46423" stroke-width="1.51"/><path d="M974,792L985,726L884,696Z" fill="#e5580a" stroke="#e5580a" stroke-width="1.51"/><path d="M650,107L534,64L508,148Z" fill="#ffbf88" stroke="#ffbf88" stroke-width="1.51"/><path d="M818,119L735,81L712,159Z" fill="#ffaf72" stroke="#ffaf72" stroke-width="1.51"/><path d="M1013,607L1061,552L992,513Z" fill="#ee6816" stroke="#ee6816" stroke-width="1.51"/><path d="M1085,601L1061,552L1013,607Z" fill="#eb6210" stroke="#eb6210" stroke-width="1.51"/><path d="M451,841L473,875L567,809Z" fill="#db773a" stroke="#db773a" stroke-width="1.51"/><path d="M342,875L473,875L451,841Z" fill="#d97b43" stroke="#d97b43" stroke-width="1.51"/><path d="M1008,371L1008,266L902,381Z" fill="#f6863c" stroke="#f6863c" stroke-width="1.51"/><path d="M903,208L871,94L837,196Z" fill="#fda262" stroke="#fda262" stroke-width="1.51"/><path d="M1068,291L1008,266L1008,371Z" fill="#f4853e" stroke="#f4853e" stroke-width="1.51"/><path d="M700,1001L805,928L748,890Z" fill="#c95c1d" stroke="#c95c1d" stroke-width="1.51"/><path d="M473,875L567,909L567,809Z" fill="#d77236" stroke="#d77236" stroke-width="1.51"/><path d="M340,732L339,826L454,723Z" fill="#ec874b" stroke="#ec874b" stroke-width="1.51"/><path d="M247,521L250,658L338,631Z" fill="#fb9e60" stroke="#fb9e60" stroke-width="1.51"/><path d="M175,645L250,658L247,521Z" fill="#fca065" stroke="#fca065" stroke-width="1.51"/><path d="M250,658L295,743L340,732Z" fill="#f39258" stroke="#f39258" stroke-width="1.51"/><path d="M1061,552L1076,433L992,513Z" fill="#ef6d1f" stroke="#ef6d1f" stroke-width="1.51"/><path d="M293,177L254,299L365,245Z" fill="#fec691" stroke="#fec691" stroke-width="1.51"/><path d="M264,379L161,424L244,437Z" fill="#ffb67c" stroke="#ffb67c" stroke-width="1.51"/><path d="M641,26L534,64L650,107Z" fill="#ffbe89" stroke="#ffbe89" stroke-width="1.51"/><path d="M508,148L431,88L448,181Z" fill="#fec48e" stroke="#fec48e" stroke-width="1.51"/><path d="M364,208L293,177L365,245Z" fill="#fec691" stroke="#fec691" stroke-width="1.51"/><path d="M1101,693L1085,601L1013,607Z" fill="#e75b0b" stroke="#e75b0b" stroke-width="1.51"/><path d="M876,811L974,792L884,696Z" fill="#e2590c" stroke="#e2590c" stroke-width="1.51"/><path d="M986,901L974,792L876,811Z" fill="#d45209" stroke="#d45209" stroke-width="1.51"/><path d="M1061,552L1173,544L1076,433Z" fill="#eb681b" stroke="#eb681b" stroke-width="1.51"/><path d="M1101,693L1013,607L985,726Z" fill="#e55909" stroke="#e55909" stroke-width="1.51"/><path d="M295,743L339,826L340,732Z" fill="#ec8b51" stroke="#ec8b51" stroke-width="1.51"/><path d="M534,64L431,88L508,148Z" fill="#ffc491" stroke="#ffc491" stroke-width="1.51"/><path d="M818,119L796,7L735,81Z" fill="#ffb177" stroke="#ffb177" stroke-width="1.51"/><path d="M1006,68L871,94L903,208Z" fill="#fda164" stroke="#fda164" stroke-width="1.51"/><path d="M534,64L517,-14L431,88Z" fill="#ffc898" stroke="#ffc898" stroke-width="1.51"/><path d="M735,81L641,26L650,107Z" fill="#ffb981" stroke="#ffb981" stroke-width="1.51"/><path d="M700,-13L641,26L735,81Z" fill="#ffba85" stroke="#ffba85" stroke-width="1.51"/><path d="M1008,266L1014,208L903,208Z" fill="#f89350" stroke="#f89350" stroke-width="1.51"/><path d="M1054,209L1014,208L1008,266Z" fill="#f68f4e" stroke="#f68f4e" stroke-width="1.51"/><path d="M748,890L805,928L831,826Z" fill="#d15c19" stroke="#d15c19" stroke-width="1.51"/><path d="M700,1001L748,890L615,899Z" fill="#cc6224" stroke="#cc6224" stroke-width="1.51"/><path d="M1094,357L1068,291L1008,371Z" fill="#f18039" stroke="#f18039" stroke-width="1.51"/><path d="M1076,433L1094,357L1008,371Z" fill="#f17a30" stroke="#f17a30" stroke-width="1.51"/><path d="M1163,357L1094,357L1076,433Z" fill="#ef772f" stroke="#ef772f" stroke-width="1.51"/><path d="M331,105L293,177L364,208Z" fill="#fdcc9c" stroke="#fdcc9c" stroke-width="1.51"/><path d="M805,928L892,910L831,826Z" fill="#ce5714" stroke="#ce5714" stroke-width="1.51"/><path d="M295,743L273,806L339,826Z" fill="#e88a54" stroke="#e88a54" stroke-width="1.51"/><path d="M339,826L342,875L451,841Z" fill="#dd8049" stroke="#dd8049" stroke-width="1.51"/><path d="M548,1021L649,995L567,909Z" fill="#c6672e" stroke="#c6672e" stroke-width="1.51"/><path d="M184,721L273,806L295,743Z" fill="#ef905a" stroke="#ef905a" stroke-width="1.51"/><path d="M244,437L161,424L247,521Z" fill="#ffb176" stroke="#ffb176" stroke-width="1.51"/><path d="M250,658L184,721L295,743Z" fill="#f5955d" stroke="#f5955d" stroke-width="1.51"/><path d="M160,339L161,424L264,379Z" fill="#ffbc84" stroke="#ffbc84" stroke-width="1.51"/><path d="M160,339L264,379L254,299Z" fill="#ffbf87" stroke="#ffbf87" stroke-width="1.51"/><path d="M273,806L342,875L339,826Z" fill="#df8651" stroke="#df8651" stroke-width="1.51"/><path d="M148,542L175,645L247,521Z" fill="#fea66c" stroke="#fea66c" stroke-width="1.51"/><path d="M1068,291L1054,209L1008,266Z" fill="#f48b48" stroke="#f48b48" stroke-width="1.51"/><path d="M1006,68L883,15L871,94Z" fill="#ffa66e" stroke="#ffa66e" stroke-width="1.51"/><path d="M1158,247L1054,209L1068,291Z" fill="#f28847" stroke="#f28847" stroke-width="1.51"/><path d="M431,88L331,105L364,208Z" fill="#fecb9a" stroke="#fecb9a" stroke-width="1.51"/><path d="M293,177L185,280L254,299Z" fill="#ffc795" stroke="#ffc795" stroke-width="1.51"/><path d="M380,18L331,105L431,88Z" fill="#ffcfa3" stroke="#ffcfa3" stroke-width="1.51"/><path d="M1101,837L1101,693L985,726Z" fill="#dc4f04" stroke="#dc4f04" stroke-width="1.51"/><path d="M1085,601L1173,544L1061,552Z" fill="#e96011" stroke="#e96011" stroke-width="1.51"/><path d="M1101,837L985,726L974,792Z" fill="#d85006" stroke="#d85006" stroke-width="1.51"/><path d="M161,424L148,542L247,521Z" fill="#ffaf75" stroke="#ffaf75" stroke-width="1.51"/><path d="M796,7L700,-13L735,81Z" fill="#ffb781" stroke="#ffb781" stroke-width="1.51"/><path d="M641,26L517,-14L534,64Z" fill="#ffc494" stroke="#ffc494" stroke-width="1.51"/><path d="M567,909L649,995L615,899Z" fill="#cc682c" stroke="#cc682c" stroke-width="1.51"/><path d="M805,928L812,982L892,910Z" fill="#c75515" stroke="#c75515" stroke-width="1.51"/><path d="M548,1021L567,909L455,1005Z" fill="#c66c35" stroke="#c66c35" stroke-width="1.51"/><path d="M883,15L796,7L871,94Z" fill="#ffae76" stroke="#ffae76" stroke-width="1.51"/><path d="M871,94L796,7L818,119Z" fill="#ffac73" stroke="#ffac73" stroke-width="1.51"/><path d="M207,150L185,280L293,177Z" fill="#fecda0" stroke="#fecda0" stroke-width="1.51"/><path d="M161,424L112,533L148,542Z" fill="#ffb179" stroke="#ffb179" stroke-width="1.51"/><path d="M185,280L160,339L254,299Z" fill="#ffc38f" stroke="#ffc38f" stroke-width="1.51"/><path d="M649,995L700,1001L615,899Z" fill="#c76227" stroke="#c76227" stroke-width="1.51"/><path d="M361,969L473,875L342,875Z" fill="#d27b46" stroke="#d27b46" stroke-width="1.51"/><path d="M175,645L184,721L250,658Z" fill="#f79a63" stroke="#f79a63" stroke-width="1.51"/><path d="M91,652L184,721L175,645Z" fill="#f99d69" stroke="#f99d69" stroke-width="1.51"/><path d="M646,-106L517,-14L641,26Z" fill="#ffc496" stroke="#ffc496" stroke-width="1.51"/><path d="M700,1001L812,982L805,928Z" fill="#c4591b" stroke="#c4591b" stroke-width="1.51"/><path d="M1199,633L1173,544L1085,601Z" fill="#e5590a" stroke="#e5590a" stroke-width="1.51"/><path d="M1094,357L1163,357L1068,291Z" fill="#ef7c37" stroke="#ef7c37" stroke-width="1.51"/><path d="M1006,68L903,208L1014,208Z" fill="#fa9b5c" stroke="#fa9b5c" stroke-width="1.51"/><path d="M746,-100L646,-106L700,-13Z" fill="#ffc08f" stroke="#ffc08f" stroke-width="1.51"/><path d="M912,990L986,901L892,910Z" fill="#c54d0b" stroke="#c54d0b" stroke-width="1.51"/><path d="M892,910L986,901L876,811Z" fill="#ce520c" stroke="#ce520c" stroke-width="1.51"/><path d="M1185,456L1163,357L1076,433Z" fill="#ec7129" stroke="#ec7129" stroke-width="1.51"/><path d="M148,542L91,652L175,645Z" fill="#fda46d" stroke="#fda46d" stroke-width="1.51"/><path d="M60,459L112,533L161,424Z" fill="#ffb67f" stroke="#ffb67f" stroke-width="1.51"/><path d="M455,1005L567,909L473,875Z" fill="#cd7139" stroke="#cd7139" stroke-width="1.51"/><path d="M649,995L548,1021L700,1001Z" fill="#c26229" stroke="#c26229" stroke-width="1.51"/><path d="M1173,544L1185,456L1076,433Z" fill="#ea691e" stroke="#ea691e" stroke-width="1.51"/><path d="M331,105L299,72L293,177Z" fill="#fed1a6" stroke="#fed1a6" stroke-width="1.51"/><path d="M421,-9L380,18L431,88Z" fill="#ffd0a5" stroke="#ffd0a5" stroke-width="1.51"/><path d="M380,18L299,72L331,105Z" fill="#fed3a9" stroke="#fed3a9" stroke-width="1.51"/><path d="M517,-14L421,-9L431,88Z" fill="#ffcda1" stroke="#ffcda1" stroke-width="1.51"/><path d="M361,969L455,1005L473,875Z" fill="#cb7541" stroke="#cb7541" stroke-width="1.51"/><path d="M288,917L342,875L273,806Z" fill="#da8553" stroke="#da8553" stroke-width="1.51"/><path d="M95,274L101,382L160,339Z" fill="#ffc593" stroke="#ffc593" stroke-width="1.51"/><path d="M299,72L207,150L293,177Z" fill="#fdd3a8" stroke="#fdd3a8" stroke-width="1.51"/><path d="M160,339L101,382L161,424Z" fill="#ffbe89" stroke="#ffbe89" stroke-width="1.51"/><path d="M95,274L160,339L185,280Z" fill="#ffc796" stroke="#ffc796" stroke-width="1.51"/><path d="M1104,103L1006,68L1054,209Z" fill="#f7985e" stroke="#f7985e" stroke-width="1.51"/><path d="M1054,209L1006,68L1014,208Z" fill="#f7975a" stroke="#f7975a" stroke-width="1.51"/><path d="M156,907L288,917L273,806Z" fill="#d98758" stroke="#d98758" stroke-width="1.51"/><path d="M288,917L361,969L342,875Z" fill="#d17f4d" stroke="#d17f4d" stroke-width="1.51"/><path d="M812,982L912,990L892,910Z" fill="#c35112" stroke="#c35112" stroke-width="1.51"/><path d="M968,1006L912,990L812,982Z" fill="#bd4c0f" stroke="#bd4c0f" stroke-width="1.51"/><path d="M968,1006L812,982L700,1001Z" fill="#bf5216" stroke="#bf5216" stroke-width="1.51"/><path d="M1163,357L1158,247L1068,291Z" fill="#ee7f3d" stroke="#ee7f3d" stroke-width="1.51"/><path d="M1176,197L1158,247L1246,296Z" fill="#e98245" stroke="#e98245" stroke-width="1.51"/><path d="M1173,544L1264,568L1185,456Z" fill="#e16017" stroke="#e16017" stroke-width="1.51"/><path d="M1101,693L1199,633L1085,601Z" fill="#e35507" stroke="#e35507" stroke-width="1.51"/><path d="M1167,750L1199,633L1101,693Z" fill="#dc4e04" stroke="#dc4e04" stroke-width="1.51"/><path d="M986,901L1101,837L974,792Z" fill="#ce4c07" stroke="#ce4c07" stroke-width="1.51"/><path d="M1102,878L1101,837L986,901Z" fill="#c74705" stroke="#c74705" stroke-width="1.51"/><path d="M112,533L91,652L148,542Z" fill="#ffa973" stroke="#ffa973" stroke-width="1.51"/><path d="M184,721L151,810L273,806Z" fill="#ec915e" stroke="#ec915e" stroke-width="1.51"/><path d="M15,555L91,652L112,533Z" fill="#ffab76" stroke="#ffab76" stroke-width="1.51"/><path d="M1101,837L1167,750L1101,693Z" fill="#d74902" stroke="#d74902" stroke-width="1.51"/><path d="M101,382L60,459L161,424Z" fill="#ffbc87" stroke="#ffbc87" stroke-width="1.51"/><path d="M-32,450L60,459L-30,333Z" fill="#ffc090" stroke="#ffc090" stroke-width="1.51"/><path d="M105,797L151,810L184,721Z" fill="#ed9464" stroke="#ed9464" stroke-width="1.51"/><path d="M72,176L95,274L185,280Z" fill="#ffcfa3" stroke="#ffcfa3" stroke-width="1.51"/><path d="M700,-13L646,-106L641,26Z" fill="#ffc08f" stroke="#ffc08f" stroke-width="1.51"/><path d="M517,-14L481,-123L421,-9Z" fill="#ffcfa6" stroke="#ffcfa6" stroke-width="1.51"/><path d="M746,-100L700,-13L796,7Z" fill="#ffba87" stroke="#ffba87" stroke-width="1.51"/><path d="M746,-100L796,7L804,-104Z" fill="#ffb987" stroke="#ffb987" stroke-width="1.51"/><path d="M1006,68L1014,22L883,15Z" fill="#fda46f" stroke="#fda46f" stroke-width="1.51"/><path d="M1089,7L1014,22L1006,68Z" fill="#faa06d" stroke="#faa06d" stroke-width="1.51"/><path d="M804,-104L796,7L886,-83Z" fill="#ffb583" stroke="#ffb583" stroke-width="1.51"/><path d="M1101,837L1183,796L1167,750Z" fill="#d04502" stroke="#d04502" stroke-width="1.51"/><path d="M1068,998L1102,878L986,901Z" fill="#bf4406" stroke="#bf4406" stroke-width="1.51"/><path d="M1176,197L1104,103L1054,209Z" fill="#f29056" stroke="#f29056" stroke-width="1.51"/><path d="M1199,633L1234,625L1173,544Z" fill="#de560a" stroke="#de560a" stroke-width="1.51"/><path d="M1246,296L1158,247L1163,357Z" fill="#e87c3b" stroke="#e87c3b" stroke-width="1.51"/><path d="M1253,750L1234,625L1199,633Z" fill="#d54d05" stroke="#d54d05" stroke-width="1.51"/><path d="M1253,750L1199,633L1167,750Z" fill="#d44a03" stroke="#d44a03" stroke-width="1.51"/><path d="M1158,247L1176,197L1054,209Z" fill="#f0894c" stroke="#f0894c" stroke-width="1.51"/><path d="M1270,428L1163,357L1185,456Z" fill="#e56d28" stroke="#e56d28" stroke-width="1.51"/><path d="M207,150L72,176L185,280Z" fill="#ffd2a7" stroke="#ffd2a7" stroke-width="1.51"/><path d="M299,72L193,82L207,150Z" fill="#fed7b0" stroke="#fed7b0" stroke-width="1.51"/><path d="M196,1L193,82L299,72Z" fill="#fedbb8" stroke="#fedbb8" stroke-width="1.51"/><path d="M296,-16L299,72L380,18Z" fill="#fed7b1" stroke="#fed7b1" stroke-width="1.51"/><path d="M296,-16L380,18L344,-107Z" fill="#ffd9b6" stroke="#ffd9b6" stroke-width="1.51"/><path d="M912,990L968,1006L986,901Z" fill="#bf4a09" stroke="#bf4a09" stroke-width="1.51"/><path d="M548,1021L968,1006L700,1001Z" fill="#c0591e" stroke="#c0591e" stroke-width="1.51"/><path d="M344,-107L380,18L421,-9Z" fill="#ffd6b0" stroke="#ffd6b0" stroke-width="1.51"/><path d="M886,-83L796,7L883,15Z" fill="#ffb17d" stroke="#ffb17d" stroke-width="1.51"/><path d="M746,-100L804,-104L646,-106Z" fill="#ffbf8f" stroke="#ffbf8f" stroke-width="1.51"/><path d="M1173,911L1183,796L1101,837Z" fill="#c64102" stroke="#c64102" stroke-width="1.51"/><path d="M804,-104L522,-119L646,-106Z" fill="#ffc497" stroke="#ffc497" stroke-width="1.51"/><path d="M646,-106L522,-119L517,-14Z" fill="#ffca9f" stroke="#ffca9f" stroke-width="1.51"/><path d="M992,-64L886,-83L883,15Z" fill="#ffad7a" stroke="#ffad7a" stroke-width="1.51"/><path d="M198,1009L291,1015L288,917Z" fill="#c97f54" stroke="#c97f54" stroke-width="1.51"/><path d="M288,917L291,1015L361,969Z" fill="#ca7d4e" stroke="#ca7d4e" stroke-width="1.51"/><path d="M56,706L105,797L184,721Z" fill="#f49868" stroke="#f49868" stroke-width="1.51"/><path d="M56,706L184,721L91,652Z" fill="#f89e6b" stroke="#f89e6b" stroke-width="1.51"/><path d="M1234,625L1264,568L1173,544Z" fill="#dd580d" stroke="#dd580d" stroke-width="1.51"/><path d="M1322,544L1264,568L1366,661Z" fill="#d1520b" stroke="#d1520b" stroke-width="1.51"/><path d="M18,648L56,706L91,652Z" fill="#faa271" stroke="#faa271" stroke-width="1.51"/><path d="M1264,568L1270,428L1185,456Z" fill="#df631d" stroke="#df631d" stroke-width="1.51"/><path d="M1281,340L1246,296L1163,357Z" fill="#e37635" stroke="#e37635" stroke-width="1.51"/><path d="M60,459L15,555L112,533Z" fill="#ffb37e" stroke="#ffb37e" stroke-width="1.51"/><path d="M-32,450L15,555L60,459Z" fill="#ffb784" stroke="#ffb784" stroke-width="1.51"/><path d="M156,907L273,806L151,810Z" fill="#e18c5e" stroke="#e18c5e" stroke-width="1.51"/><path d="M361,969L291,1015L455,1005Z" fill="#c57747" stroke="#c57747" stroke-width="1.51"/><path d="M455,1005L291,1015L548,1021Z" fill="#c2713f" stroke="#c2713f" stroke-width="1.51"/><path d="M522,-119L481,-123L517,-14Z" fill="#ffcfa5" stroke="#ffcfa5" stroke-width="1.51"/><path d="M804,-104L481,-123L522,-119Z" fill="#ffc99e" stroke="#ffc99e" stroke-width="1.51"/><path d="M91,909L156,907L151,810Z" fill="#db8d63" stroke="#db8d63" stroke-width="1.51"/><path d="M91,909L151,810L105,797Z" fill="#e29065" stroke="#e29065" stroke-width="1.51"/><path d="M15,555L18,648L91,652Z" fill="#fea775" stroke="#fea775" stroke-width="1.51"/><path d="M9,875L91,909L105,797Z" fill="#df9169" stroke="#df9169" stroke-width="1.51"/><path d="M1014,22L992,-64L883,15Z" fill="#ffa875" stroke="#ffa875" stroke-width="1.51"/><path d="M886,-83L1073,-98L804,-104Z" fill="#ffaf7f" stroke="#ffaf7f" stroke-width="1.51"/><path d="M1089,7L992,-64L1014,22Z" fill="#fba372" stroke="#fba372" stroke-width="1.51"/><path d="M1089,7L1006,68L1104,103Z" fill="#f79c68" stroke="#f79c68" stroke-width="1.51"/><path d="M1089,7L1104,103L1146,65Z" fill="#f59966" stroke="#f59966" stroke-width="1.51"/><path d="M1146,65L1104,103L1176,197Z" fill="#f2925c" stroke="#f2925c" stroke-width="1.51"/><path d="M1270,428L1281,340L1163,357Z" fill="#e1702e" stroke="#e1702e" stroke-width="1.51"/><path d="M1347,352L1281,340L1270,428Z" fill="#da6d2e" stroke="#da6d2e" stroke-width="1.51"/><path d="M95,274L-30,333L101,382Z" fill="#ffc89a" stroke="#ffc89a" stroke-width="1.51"/><path d="M116,69L72,176L207,150Z" fill="#fedab6" stroke="#fedab6" stroke-width="1.51"/><path d="M116,69L207,150L193,82Z" fill="#fedab6" stroke="#fedab6" stroke-width="1.51"/><path d="M1146,65L1176,197L1261,117Z" fill="#ec8f5a" stroke="#ec8f5a" stroke-width="1.51"/><path d="M1281,196L1176,197L1246,296Z" fill="#e48248" stroke="#e48248" stroke-width="1.51"/><path d="M1183,796L1253,750L1167,750Z" fill="#ce4502" stroke="#ce4502" stroke-width="1.51"/><path d="M1264,568L1322,544L1270,428Z" fill="#d85d18" stroke="#d85d18" stroke-width="1.51"/><path d="M1275,829L1253,750L1183,796Z" fill="#c64102" stroke="#c64102" stroke-width="1.51"/><path d="M1173,911L1101,837L1102,878Z" fill="#c34203" stroke="#c34203" stroke-width="1.51"/><path d="M968,1006L1068,998L986,901Z" fill="#bc4608" stroke="#bc4608" stroke-width="1.51"/><path d="M296,-16L196,1L299,72Z" fill="#fedcb9" stroke="#fedcb9" stroke-width="1.51"/><path d="M265,-123L196,1L296,-16Z" fill="#ffe0c1" stroke="#ffe0c1" stroke-width="1.51"/><path d="M72,176L19,257L95,274Z" fill="#ffd2aa" stroke="#ffd2aa" stroke-width="1.51"/><path d="M481,-123L344,-107L421,-9Z" fill="#ffd5b1" stroke="#ffd5b1" stroke-width="1.51"/><path d="M1068,998L1173,911L1102,878Z" fill="#bb4004" stroke="#bb4004" stroke-width="1.51"/><path d="M72,176L4,203L19,257Z" fill="#ffd6b0" stroke="#ffd6b0" stroke-width="1.51"/><path d="M196,1L116,69L193,82Z" fill="#fedebe" stroke="#fedebe" stroke-width="1.51"/><path d="M-30,333L60,459L101,382Z" fill="#ffc191" stroke="#ffc191" stroke-width="1.51"/><path d="M-102,648L-32,712L18,648Z" fill="#fca578" stroke="#fca578" stroke-width="1.51"/><path d="M1366,661L1264,568L1234,625Z" fill="#d35009" stroke="#d35009" stroke-width="1.51"/><path d="M95,990L198,1009L156,907Z" fill="#cd865f" stroke="#cd865f" stroke-width="1.51"/><path d="M156,907L198,1009L288,917Z" fill="#cf8459" stroke="#cf8459" stroke-width="1.51"/><path d="M-95,253L-30,333L19,257Z" fill="#ffd0a8" stroke="#ffd0a8" stroke-width="1.51"/><path d="M19,257L-30,333L95,274Z" fill="#ffcda3" stroke="#ffcda3" stroke-width="1.51"/><path d="M-27,794L105,797L56,706Z" fill="#f1996d" stroke="#f1996d" stroke-width="1.51"/><path d="M1157,-95L1073,-98L1089,7Z" fill="#f9a074" stroke="#f9a074" stroke-width="1.51"/><path d="M1331,267L1281,196L1246,296Z" fill="#de7c43" stroke="#de7c43" stroke-width="1.51"/><path d="M1331,267L1246,296L1281,340Z" fill="#dc773a" stroke="#dc773a" stroke-width="1.51"/><path d="M-5,105L4,203L72,176Z" fill="#fedcba" stroke="#fedcba" stroke-width="1.51"/><path d="M1322,544L1350,425L1270,428Z" fill="#d6621e" stroke="#d6621e" stroke-width="1.51"/><path d="M18,648L-32,712L56,706Z" fill="#faa173" stroke="#faa173" stroke-width="1.51"/><path d="M-102,648L18,648L15,555Z" fill="#ffaa7a" stroke="#ffaa7a" stroke-width="1.51"/><path d="M-102,472L-68,513L-32,450Z" fill="#ffbb8c" stroke="#ffbb8c" stroke-width="1.51"/><path d="M-32,450L-68,513L15,555Z" fill="#ffb785" stroke="#ffb785" stroke-width="1.51"/><path d="M1350,425L1347,352L1270,428Z" fill="#d66929" stroke="#d66929" stroke-width="1.51"/><path d="M1253,750L1333,734L1234,625Z" fill="#cd4703" stroke="#cd4703" stroke-width="1.51"/><path d="M1322,544L1411,427L1350,425Z" fill="#d1601e" stroke="#d1601e" stroke-width="1.51"/><path d="M1173,911L1275,829L1183,796Z" fill="#bf3f03" stroke="#bf3f03" stroke-width="1.51"/><path d="M1245,918L1275,829L1173,911Z" fill="#b63b03" stroke="#b63b03" stroke-width="1.51"/><path d="M1281,196L1261,117L1176,197Z" fill="#e58953" stroke="#e58953" stroke-width="1.51"/><path d="M1089,7L1073,-98L992,-64Z" fill="#fba375" stroke="#fba375" stroke-width="1.51"/><path d="M1371,108L1261,117L1281,196Z" fill="#dd8856" stroke="#dd8856" stroke-width="1.51"/><path d="M196,1L101,-3L116,69Z" fill="#fee2c6" stroke="#fee2c6" stroke-width="1.51"/><path d="M116,69L-5,105L72,176Z" fill="#fedebf" stroke="#fedebf" stroke-width="1.51"/><path d="M344,-107L265,-123L296,-16Z" fill="#ffdebf" stroke="#ffdebf" stroke-width="1.51"/><path d="M481,-123L265,-123L344,-107Z" fill="#ffdcbb" stroke="#ffdcbb" stroke-width="1.51"/><path d="M1347,352L1331,267L1281,340Z" fill="#d87336" stroke="#d87336" stroke-width="1.51"/><path d="M1199,-26L1089,7L1146,65Z" fill="#f49a6b" stroke="#f49a6b" stroke-width="1.51"/><path d="M992,-64L1073,-98L886,-83Z" fill="#ffaa7b" stroke="#ffaa7b" stroke-width="1.51"/><path d="M804,-104L1073,-98L481,-123Z" fill="#ffba8b" stroke="#ffba8b" stroke-width="1.51"/><path d="M1275,829L1333,734L1253,750Z" fill="#c34003" stroke="#c34003" stroke-width="1.51"/><path d="M158,-112L101,-3L196,1Z" fill="#fee4cb" stroke="#fee4cb" stroke-width="1.51"/><path d="M1275,829L1375,814L1333,734Z" fill="#bb3d03" stroke="#bb3d03" stroke-width="1.51"/><path d="M1068,998L1199,975L1173,911Z" fill="#b53b03" stroke="#b53b03" stroke-width="1.51"/><path d="M1199,975L1245,918L1173,911Z" fill="#b23a03" stroke="#b23a03" stroke-width="1.51"/><path d="M-104,707L-27,794L-32,712Z" fill="#f79f75" stroke="#f79f75" stroke-width="1.51"/><path d="M-32,712L-27,794L56,706Z" fill="#f79d71" stroke="#f79d71" stroke-width="1.51"/><path d="M1333,734L1366,661L1234,625Z" fill="#cb4906" stroke="#cb4906" stroke-width="1.51"/><path d="M1350,425L1428,374L1347,352Z" fill="#d1692b" stroke="#d1692b" stroke-width="1.51"/><path d="M-21,1010L95,990L91,909Z" fill="#ce8a67" stroke="#ce8a67" stroke-width="1.51"/><path d="M91,909L95,990L156,907Z" fill="#d28963" stroke="#d28963" stroke-width="1.51"/><path d="M-27,794L9,875L105,797Z" fill="#e6956c" stroke="#e6956c" stroke-width="1.51"/><path d="M-112,378L-102,472L-32,450Z" fill="#ffc193" stroke="#ffc193" stroke-width="1.51"/><path d="M-68,513L-102,648L15,555Z" fill="#ffb07f" stroke="#ffb07f" stroke-width="1.51"/><path d="M-112,378L-32,450L-30,333Z" fill="#ffc598" stroke="#ffc598" stroke-width="1.51"/><path d="M-95,253L-112,378L-30,333Z" fill="#ffcda3" stroke="#ffcda3" stroke-width="1.51"/><path d="M101,-3L-5,105L116,69Z" fill="#fee2c7" stroke="#fee2c7" stroke-width="1.51"/><path d="M1269,23L1199,-26L1146,65Z" fill="#ed9669" stroke="#ed9669" stroke-width="1.51"/><path d="M1269,23L1146,65L1261,117Z" fill="#e99162" stroke="#e99162" stroke-width="1.51"/><path d="M-102,472L-102,648L-68,513Z" fill="#ffb585" stroke="#ffb585" stroke-width="1.51"/><path d="M-27,794L-110,812L9,875Z" fill="#e79771" stroke="#e79771" stroke-width="1.51"/><path d="M-102,472L-112,378L-102,648Z" fill="#ffba8c" stroke="#ffba8c" stroke-width="1.51"/><path d="M-95,253L19,257L4,203Z" fill="#ffd5b0" stroke="#ffd5b0" stroke-width="1.51"/><path d="M1371,108L1269,23L1261,117Z" fill="#e08c5f" stroke="#e08c5f" stroke-width="1.51"/><path d="M1347,352L1469,270L1331,267Z" fill="#d17339" stroke="#d17339" stroke-width="1.51"/><path d="M1439,566L1411,427L1322,544Z" fill="#cc5917" stroke="#cc5917" stroke-width="1.51"/><path d="M-5,105L-65,190L4,203Z" fill="#ffddbd" stroke="#ffddbd" stroke-width="1.51"/><path d="M265,-123L158,-112L196,1Z" fill="#ffe4c9" stroke="#ffe4c9" stroke-width="1.51"/><path d="M101,-3L-23,5L-5,105Z" fill="#fee6cd" stroke="#fee6cd" stroke-width="1.51"/><path d="M1073,-98L1429,-91L481,-123Z" fill="#ffaa7d" stroke="#ffaa7d" stroke-width="1.51"/><path d="M1199,-26L1157,-95L1089,7Z" fill="#f69c70" stroke="#f69c70" stroke-width="1.51"/><path d="M-65,190L-95,253L4,203Z" fill="#ffd8b5" stroke="#ffd8b5" stroke-width="1.51"/><path d="M1199,-26L1251,-79L1157,-95Z" fill="#f09b72" stroke="#f09b72" stroke-width="1.51"/><path d="M1382,174L1281,196L1331,267Z" fill="#d87f49" stroke="#d87f49" stroke-width="1.51"/><path d="M-102,648L-104,707L-32,712Z" fill="#fba579" stroke="#fba579" stroke-width="1.51"/><path d="M-112,378L-104,707L-102,648Z" fill="#ffb182" stroke="#ffb182" stroke-width="1.51"/><path d="M1473,658L1439,566L1366,661Z" fill="#c24a09" stroke="#c24a09" stroke-width="1.51"/><path d="M1381,928L1375,814L1275,829Z" fill="#ad3903" stroke="#ad3903" stroke-width="1.51"/><path d="M1199,975L1257,985L1245,918Z" fill="#ab3803" stroke="#ab3803" stroke-width="1.51"/><path d="M1068,998L1257,985L1199,975Z" fill="#af3903" stroke="#af3903" stroke-width="1.51"/><path d="M1334,1010L1257,985L1068,998Z" fill="#a83603" stroke="#a83603" stroke-width="1.51"/><path d="M1411,427L1428,374L1350,425Z" fill="#ce6527" stroke="#ce6527" stroke-width="1.51"/><path d="M1513,459L1428,374L1411,427Z" fill="#c96225" stroke="#c96225" stroke-width="1.51"/><path d="M1366,661L1439,566L1322,544Z" fill="#ca500b" stroke="#ca500b" stroke-width="1.51"/><path d="M1423,732L1366,661L1333,734Z" fill="#c14204" stroke="#c14204" stroke-width="1.51"/><path d="M1381,928L1275,829L1245,918Z" fill="#ad3803" stroke="#ad3803" stroke-width="1.51"/><path d="M1469,270L1382,174L1331,267Z" fill="#d17944" stroke="#d17944" stroke-width="1.51"/><path d="M1375,814L1423,732L1333,734Z" fill="#bb3d02" stroke="#bb3d02" stroke-width="1.51"/><path d="M-65,190L-103,116L-95,253Z" fill="#ffddbd" stroke="#ffddbd" stroke-width="1.51"/><path d="M-5,105L-103,116L-65,190Z" fill="#ffe1c4" stroke="#ffe1c4" stroke-width="1.51"/><path d="M158,-112L66,-86L101,-3Z" fill="#ffe8d2" stroke="#ffe8d2" stroke-width="1.51"/><path d="M1382,174L1371,108L1281,196Z" fill="#d88453" stroke="#d88453" stroke-width="1.51"/><path d="M1269,23L1251,-79L1199,-26Z" fill="#ea976d" stroke="#ea976d" stroke-width="1.51"/><path d="M1445,167L1371,108L1382,174Z" fill="#d28253" stroke="#d28253" stroke-width="1.51"/><path d="M-104,707L-110,812L-27,794Z" fill="#f29d75" stroke="#f29d75" stroke-width="1.51"/><path d="M9,875L-21,1010L91,909Z" fill="#d48e6a" stroke="#d48e6a" stroke-width="1.51"/><path d="M-112,378L-110,812L-104,707Z" fill="#ffab7e" stroke="#ffab7e" stroke-width="1.51"/><path d="M66,-86L-23,5L101,-3Z" fill="#fee9d4" stroke="#fee9d4" stroke-width="1.51"/><path d="M1347,-90L1251,-79L1269,23Z" fill="#e4956f" stroke="#e4956f" stroke-width="1.51"/><path d="M1375,814L1418,803L1423,732Z" fill="#b43b03" stroke="#b43b03" stroke-width="1.51"/><path d="M1423,732L1473,658L1366,661Z" fill="#be4406" stroke="#be4406" stroke-width="1.51"/><path d="M1381,928L1418,803L1375,814Z" fill="#aa3703" stroke="#aa3703" stroke-width="1.51"/><path d="M-23,5L-103,116L-5,105Z" fill="#ffe5cc" stroke="#ffe5cc" stroke-width="1.51"/><path d="M-95,253L-103,116L-112,378Z" fill="#ffd7b2" stroke="#ffd7b2" stroke-width="1.51"/><path d="M1548,637L1473,658L1550,728Z" fill="#b54106" stroke="#b54106" stroke-width="1.51"/><path d="M1516,357L1469,270L1428,374Z" fill="#c86a33" stroke="#c86a33" stroke-width="1.51"/><path d="M-82,981L-21,1010L9,875Z" fill="#d18e6d" stroke="#d18e6d" stroke-width="1.51"/><path d="M95,990L-21,1010L198,1009Z" fill="#c88664" stroke="#c88664" stroke-width="1.51"/><path d="M198,1009L-21,1010L291,1015Z" fill="#c6835e" stroke="#c6835e" stroke-width="1.51"/><path d="M291,1015L-21,1010L548,1021Z" fill="#c37c52" stroke="#c37c52" stroke-width="1.51"/><path d="M1428,374L1469,270L1347,352Z" fill="#cd6d33" stroke="#cd6d33" stroke-width="1.51"/><path d="M1513,459L1411,427L1439,566Z" fill="#c75a1c" stroke="#c75a1c" stroke-width="1.51"/><path d="M1548,637L1532,565L1473,658Z" fill="#ba4709" stroke="#ba4709" stroke-width="1.51"/><path d="M1257,985L1381,928L1245,918Z" fill="#a63604" stroke="#a63604" stroke-width="1.51"/><path d="M1371,108L1376,18L1269,23Z" fill="#dc8d62" stroke="#dc8d62" stroke-width="1.51"/><path d="M1469,270L1445,167L1382,174Z" fill="#ce7b49" stroke="#ce7b49" stroke-width="1.51"/><path d="M1257,985L1334,1010L1381,928Z" fill="#9f3304" stroke="#9f3304" stroke-width="1.51"/><path d="M968,1006L1334,1010L1068,998Z" fill="#b13b04" stroke="#b13b04" stroke-width="1.51"/><path d="M548,1021L1334,1010L968,1006Z" fill="#b9470a" stroke="#b9470a" stroke-width="1.51"/><path d="M1532,565L1513,459L1439,566Z" fill="#c15315" stroke="#c15315" stroke-width="1.51"/><path d="M1471,112L1376,18L1371,108Z" fill="#d3885d" stroke="#d3885d" stroke-width="1.51"/><path d="M-110,812L-105,930L9,875Z" fill="#df9471" stroke="#df9471" stroke-width="1.51"/><path d="M-23,5L-99,-15L-103,116Z" fill="#ffe9d4" stroke="#ffe9d4" stroke-width="1.51"/><path d="M66,-86L1,-106L-23,5Z" fill="#ffebd9" stroke="#ffebd9" stroke-width="1.51"/><path d="M158,-112L1,-106L66,-86Z" fill="#ffebd9" stroke="#ffebd9" stroke-width="1.51"/><path d="M265,-123L1,-106L158,-112Z" fill="#ffe9d3" stroke="#ffe9d3" stroke-width="1.51"/><path d="M-105,930L-82,981L9,875Z" fill="#d5906f" stroke="#d5906f" stroke-width="1.51"/><path d="M1513,459L1516,357L1428,374Z" fill="#c66329" stroke="#c66329" stroke-width="1.51"/><path d="M1505,189L1471,112L1445,167Z" fill="#cb7f51" stroke="#cb7f51" stroke-width="1.51"/><path d="M1473,658L1532,565L1439,566Z" fill="#bf4b0a" stroke="#bf4b0a" stroke-width="1.51"/><path d="M1513,459L1541,269L1516,357Z" fill="#c3652e" stroke="#c3652e" stroke-width="1.51"/><path d="M1473,658L1423,732L1550,728Z" fill="#b73f05" stroke="#b73f05" stroke-width="1.51"/><path d="M-110,-71L-99,-15L-23,5Z" fill="#ffeddc" stroke="#ffeddc" stroke-width="1.51"/><path d="M-103,116L-110,-71L-112,378Z" fill="#ffe2c7" stroke="#ffe2c7" stroke-width="1.51"/><path d="M1445,167L1471,112L1371,108Z" fill="#d08356" stroke="#d08356" stroke-width="1.51"/><path d="M1505,189L1445,167L1469,270Z" fill="#ca7948" stroke="#ca7948" stroke-width="1.51"/><path d="M1429,-91L1347,-90L1376,18Z" fill="#d9906d" stroke="#d9906d" stroke-width="1.51"/><path d="M1376,18L1347,-90L1269,23Z" fill="#dd916b" stroke="#dd916b" stroke-width="1.51"/><path d="M1251,-79L1347,-90L1157,-95Z" fill="#e99973" stroke="#e99973" stroke-width="1.51"/><path d="M1157,-95L1429,-91L1073,-98Z" fill="#ee9b74" stroke="#ee9b74" stroke-width="1.51"/><path d="M1541,269L1469,270L1516,357Z" fill="#c46d38" stroke="#c46d38" stroke-width="1.51"/><path d="M1541,269L1505,189L1469,270Z" fill="#c67442" stroke="#c67442" stroke-width="1.51"/><path d="M1532,565L1541,269L1513,459Z" fill="#c15d22" stroke="#c15d22" stroke-width="1.51"/><path d="M1550,728L1423,732L1418,803Z" fill="#b33b03" stroke="#b33b03" stroke-width="1.51"/><path d="M1459,929L1418,803L1381,928Z" fill="#a13404" stroke="#a13404" stroke-width="1.51"/><path d="M1548,637L1541,269L1532,565Z" fill="#bf561a" stroke="#bf561a" stroke-width="1.51"/><path d="M1504,-20L1445,-9L1471,112Z" fill="#ce8864" stroke="#ce8864" stroke-width="1.51"/><path d="M1458,972L1459,929L1381,928Z" fill="#983104" stroke="#983104" stroke-width="1.51"/><path d="M1548,637L1550,-65L1541,269Z" fill="#c16d3b" stroke="#c16d3b" stroke-width="1.51"/><path d="M1554,823L1550,728L1418,803Z" fill="#aa3703" stroke="#aa3703" stroke-width="1.51"/><path d="M1,-106L-110,-71L-23,5Z" fill="#ffeddc" stroke="#ffeddc" stroke-width="1.51"/><path d="M-99,-15L-110,-71L-103,116Z" fill="#ffecda" stroke="#ffecda" stroke-width="1.51"/><path d="M1509,112L1471,112L1505,189Z" fill="#c97f54" stroke="#c97f54" stroke-width="1.51"/><path d="M1471,112L1445,-9L1376,18Z" fill="#d18962" stroke="#d18962" stroke-width="1.51"/><path d="M1541,269L1509,112L1505,189Z" fill="#c6794b" stroke="#c6794b" stroke-width="1.51"/><path d="M1528,895L1554,823L1418,803Z" fill="#a23404" stroke="#a23404" stroke-width="1.51"/><path d="M1334,1010L1458,972L1381,928Z" fill="#983104" stroke="#983104" stroke-width="1.51"/><path d="M1528,895L1418,803L1459,929Z" fill="#9f3304" stroke="#9f3304" stroke-width="1.51"/><path d="M1550,728L1554,823L1548,637Z" fill="#ae3a04" stroke="#ae3a04" stroke-width="1.51"/><path d="M1525,1003L1528,895L1459,929Z" fill="#922e04" stroke="#922e04" stroke-width="1.51"/><path d="M1504,-20L1429,-91L1445,-9Z" fill="#d08c6b" stroke="#d08c6b" stroke-width="1.51"/><path d="M1445,-9L1429,-91L1376,18Z" fill="#d48e6a" stroke="#d48e6a" stroke-width="1.51"/><path d="M1347,-90L1429,-91L1157,-95Z" fill="#e29672" stroke="#e29672" stroke-width="1.51"/><path d="M1509,112L1504,-20L1471,112Z" fill="#cb845e" stroke="#cb845e" stroke-width="1.51"/><path d="M1550,-65L1504,-20L1509,112Z" fill="#c98765" stroke="#c98765" stroke-width="1.51"/><path d="M1458,972L1525,1003L1459,929Z" fill="#902e04" stroke="#902e04" stroke-width="1.51"/><path d="M1528,895L1525,1003L1554,823Z" fill="#932f04" stroke="#932f04" stroke-width="1.51"/><path d="M1334,1010L1525,1003L1458,972Z" fill="#912e04" stroke="#912e04" stroke-width="1.51"/><path d="M1504,-20L1550,-65L1429,-91Z" fill="#cd8c6c" stroke="#cd8c6c" stroke-width="1.51"/><path d="M1541,269L1550,-65L1509,112Z" fill="#c68058" stroke="#c68058" stroke-width="1.51"/><path d="M1554,823L1550,-65L1548,637Z" fill="#bf581d" stroke="#bf581d" stroke-width="1.51"/></svg>