<svg xmlns="http://www.w3.org/2000/svg" width="360" height="640"><path d="M162,350L165,383L191,388Z" fill="#64a8d2" stroke="#64a8d2" stroke-width="1.51"/><path d="M191,388L202,345L162,350Z" fill="#62a7d2" stroke="#62a7d2" stroke-width="1.51"/><path d="M165,383L163,418L191,388Z" fill="#60a5d1" stroke="#60a5d1" stroke-width="1.51"/><path d="M126,431L163,418L165,383Z" fill="#67a7d2" stroke="#67a7d2" stroke-width="1.51"/><path d="M245,377L237,347L202,345Z" fill="#569fce" stroke="#569fce" stroke-width="1.51"/><path d="M245,377L202,345L191,388Z" fill="#58a0ce" stroke="#58a0ce" stroke-width="1.51"/><path d="M162,350L122,350L165,383Z" fill="#70aed5" stroke="#70aed5" stroke-width="1.51"/><path d="M157,307L122,350L162,350Z" fill="#76b3d8" stroke="#76b3d8" stroke-width="1.51"/><path d="M202,345L157,307L162,350Z" fill="#6badd6" stroke="#6badd6" stroke-width="1.51"/><path d="M201,297L157,307L202,345Z" fill="#6aadd5" stroke="#6aadd5" stroke-width="1.51"/><path d="M210,435L245,377L191,388Z" fill="#519bcb" stroke="#519bcb" stroke-width="1.51"/><path d="M237,347L201,297L202,345Z" fill="#60a5d1" stroke="#60a5d1" stroke-width="1.51"/><path d="M163,418L210,435L191,388Z" fill="#579fcd" stroke="#579fcd" stroke-width="1.51"/><path d="M122,350L105,374L165,383Z" fill="#76b1d6" stroke="#76b1d6" stroke-width="1.51"/><path d="M163,418L160,476L210,435Z" fill="#569dcc" stroke="#569dcc" stroke-width="1.51"/><path d="M105,374L126,431L165,383Z" fill="#71add4" stroke="#71add4" stroke-width="1.51"/><path d="M237,347L234,292L201,297Z" fill="#61a6d2" stroke="#61a6d2" stroke-width="1.51"/><path d="M279,345L234,292L237,347Z" fill="#569ecd" stroke="#569ecd" stroke-width="1.51"/><path d="M210,435L239,436L245,377Z" fill="#4996c9" stroke="#4996c9" stroke-width="1.51"/><path d="M245,377L279,345L237,347Z" fill="#4f99ca" stroke="#4f99ca" stroke-width="1.51"/><path d="M294,371L279,345L245,377Z" fill="#4a93c8" stroke="#4a93c8" stroke-width="1.51"/><path d="M105,374L73,422L126,431Z" fill="#7ab1d6" stroke="#7ab1d6" stroke-width="1.51"/><path d="M122,350L79,372L105,374Z" fill="#82b7d9" stroke="#82b7d9" stroke-width="1.51"/><path d="M59,352L79,372L122,350Z" fill="#88badb" stroke="#88badb" stroke-width="1.51"/><path d="M157,307L100,301L122,350Z" fill="#80b9db" stroke="#80b9db" stroke-width="1.51"/><path d="M160,261L100,301L157,307Z" fill="#83badb" stroke="#83badb" stroke-width="1.51"/><path d="M160,261L157,307L201,297Z" fill="#77b4d8" stroke="#77b4d8" stroke-width="1.51"/><path d="M205,241L160,261L201,297Z" fill="#77b3d8" stroke="#77b3d8" stroke-width="1.51"/><path d="M302,438L294,371L245,377Z" fill="#418dc4" stroke="#418dc4" stroke-width="1.51"/><path d="M126,431L160,476L163,418Z" fill="#63a3cf" stroke="#63a3cf" stroke-width="1.51"/><path d="M210,435L208,480L239,436Z" fill="#4893c7" stroke="#4893c7" stroke-width="1.51"/><path d="M114,488L160,476L126,431Z" fill="#67a1cf" stroke="#67a1cf" stroke-width="1.51"/><path d="M160,476L208,480L210,435Z" fill="#4f96c9" stroke="#4f96c9" stroke-width="1.51"/><path d="M239,436L302,438L245,377Z" fill="#408fc4" stroke="#408fc4" stroke-width="1.51"/><path d="M79,372L73,422L105,374Z" fill="#83b6d9" stroke="#83b6d9" stroke-width="1.51"/><path d="M100,301L59,352L122,350Z" fill="#8abcdd" stroke="#8abcdd" stroke-width="1.51"/><path d="M79,372L28,392L73,422Z" fill="#8ab7db" stroke="#8ab7db" stroke-width="1.51"/><path d="M234,292L205,241L201,297Z" fill="#6eadd5" stroke="#6eadd5" stroke-width="1.51"/><path d="M246,237L205,241L234,292Z" fill="#6facd4" stroke="#6facd4" stroke-width="1.51"/><path d="M160,261L125,240L100,301Z" fill="#8dc0dd" stroke="#8dc0dd" stroke-width="1.51"/><path d="M100,301L65,284L59,352Z" fill="#94c2e0" stroke="#94c2e0" stroke-width="1.51"/><path d="M149,221L125,240L160,261Z" fill="#8ec0de" stroke="#8ec0de" stroke-width="1.51"/><path d="M208,480L243,488L239,436Z" fill="#428dc4" stroke="#428dc4" stroke-width="1.51"/><path d="M234,512L243,488L208,480Z" fill="#3f8ac2" stroke="#3f8ac2" stroke-width="1.51"/><path d="M279,345L298,291L234,292Z" fill="#579bcc" stroke="#579bcc" stroke-width="1.51"/><path d="M329,350L298,291L279,345Z" fill="#4c91c7" stroke="#4c91c7" stroke-width="1.51"/><path d="M294,476L302,438L239,436Z" fill="#3885bf" stroke="#3885bf" stroke-width="1.51"/><path d="M294,371L329,350L279,345Z" fill="#478ec4" stroke="#478ec4" stroke-width="1.51"/><path d="M61,468L114,488L126,431Z" fill="#74a8d2" stroke="#74a8d2" stroke-width="1.51"/><path d="M209,522L234,512L208,480Z" fill="#428ac3" stroke="#428ac3" stroke-width="1.51"/><path d="M125,240L65,284L100,301Z" fill="#96c4e0" stroke="#96c4e0" stroke-width="1.51"/><path d="M298,291L246,237L234,292Z" fill="#64a3cf" stroke="#64a3cf" stroke-width="1.51"/><path d="M205,241L149,221L160,261Z" fill="#83bbdb" stroke="#83bbdb" stroke-width="1.51"/><path d="M208,204L149,221L205,241Z" fill="#83badb" stroke="#83badb" stroke-width="1.51"/><path d="M125,240L57,253L65,284Z" fill="#9ec8e2" stroke="#9ec8e2" stroke-width="1.51"/><path d="M329,382L329,350L294,371Z" fill="#4188c1" stroke="#4188c1" stroke-width="1.51"/><path d="M302,438L329,382L294,371Z" fill="#3b86c1" stroke="#3b86c1" stroke-width="1.51"/><path d="M243,488L294,476L239,436Z" fill="#3987c0" stroke="#3987c0" stroke-width="1.51"/><path d="M209,522L208,480L160,476Z" fill="#4b91c7" stroke="#4b91c7" stroke-width="1.51"/><path d="M59,352L28,392L79,372Z" fill="#8fbcde" stroke="#8fbcde" stroke-width="1.51"/><path d="M73,422L61,468L126,431Z" fill="#7badd5" stroke="#7badd5" stroke-width="1.51"/><path d="M21,348L28,392L59,352Z" fill="#95bfe0" stroke="#95bfe0" stroke-width="1.51"/><path d="M302,438L352,435L329,382Z" fill="#337fbb" stroke="#337fbb" stroke-width="1.51"/><path d="M296,513L294,476L243,488Z" fill="#317ebc" stroke="#317ebc" stroke-width="1.51"/><path d="M20,436L61,468L73,422Z" fill="#86b2d8" stroke="#86b2d8" stroke-width="1.51"/><path d="M152,534L209,522L160,476Z" fill="#5092c7" stroke="#5092c7" stroke-width="1.51"/><path d="M114,488L111,508L160,476Z" fill="#669ecc" stroke="#669ecc" stroke-width="1.51"/><path d="M63,519L111,508L114,488Z" fill="#71a1ce" stroke="#71a1ce" stroke-width="1.51"/><path d="M25,302L21,348L59,352Z" fill="#9bc4e2" stroke="#9bc4e2" stroke-width="1.51"/><path d="M246,237L208,204L205,241Z" fill="#79b2d7" stroke="#79b2d7" stroke-width="1.51"/><path d="M246,237L255,198L208,204Z" fill="#79b0d6" stroke="#79b0d6" stroke-width="1.51"/><path d="M298,291L297,243L246,237Z" fill="#65a0ce" stroke="#65a0ce" stroke-width="1.51"/><path d="M323,254L297,243L298,291Z" fill="#5f99ca" stroke="#5f99ca" stroke-width="1.51"/><path d="M65,284L25,302L59,352Z" fill="#9cc5e3" stroke="#9cc5e3" stroke-width="1.51"/><path d="M102,201L57,253L125,240Z" fill="#a1cbe2" stroke="#a1cbe2" stroke-width="1.51"/><path d="M32,264L25,302L65,284Z" fill="#a5cae5" stroke="#a5cae5" stroke-width="1.51"/><path d="M111,508L152,534L160,476Z" fill="#6099ca" stroke="#6099ca" stroke-width="1.51"/><path d="M61,468L63,519L114,488Z" fill="#78a5d1" stroke="#78a5d1" stroke-width="1.51"/><path d="M28,392L20,436L73,422Z" fill="#8cb7dc" stroke="#8cb7dc" stroke-width="1.51"/><path d="M-16,429L20,436L28,392Z" fill="#92badd" stroke="#92badd" stroke-width="1.51"/><path d="M351,303L323,254L298,291Z" fill="#5691c6" stroke="#5691c6" stroke-width="1.51"/><path d="M282,200L255,198L246,237Z" fill="#74aad3" stroke="#74aad3" stroke-width="1.51"/><path d="M373,339L351,303L329,350Z" fill="#4684bd" stroke="#4684bd" stroke-width="1.51"/><path d="M329,350L351,303L298,291Z" fill="#4c8cc4" stroke="#4c8cc4" stroke-width="1.51"/><path d="M57,253L32,264L65,284Z" fill="#a6cbe5" stroke="#a6cbe5" stroke-width="1.51"/><path d="M282,200L246,237L297,243Z" fill="#6ea5d0" stroke="#6ea5d0" stroke-width="1.51"/><path d="M149,221L102,201L125,240Z" fill="#99c7e0" stroke="#99c7e0" stroke-width="1.51"/><path d="M57,253L29,204L32,264Z" fill="#aed0e7" stroke="#aed0e7" stroke-width="1.51"/><path d="M99,169L102,201L149,221Z" fill="#a1cbe2" stroke="#a1cbe2" stroke-width="1.51"/><path d="M76,194L102,201L99,169Z" fill="#abcfe5" stroke="#abcfe5" stroke-width="1.51"/><path d="M294,476L321,485L302,438Z" fill="#2e7cbb" stroke="#2e7cbb" stroke-width="1.51"/><path d="M329,382L366,374L329,350Z" fill="#3e81bc" stroke="#3e81bc" stroke-width="1.51"/><path d="M296,513L321,485L294,476Z" fill="#2b78b9" stroke="#2b78b9" stroke-width="1.51"/><path d="M296,513L243,488L234,512Z" fill="#3482be" stroke="#3482be" stroke-width="1.51"/><path d="M321,485L352,435L302,438Z" fill="#2d79b9" stroke="#2d79b9" stroke-width="1.51"/><path d="M352,435L366,374L329,382Z" fill="#367cb9" stroke="#367cb9" stroke-width="1.51"/><path d="M233,558L296,513L234,512Z" fill="#317ebc" stroke="#317ebc" stroke-width="1.51"/><path d="M233,558L234,512L209,522Z" fill="#3c84bf" stroke="#3c84bf" stroke-width="1.51"/><path d="M152,534L195,554L209,522Z" fill="#498bc3" stroke="#498bc3" stroke-width="1.51"/><path d="M20,436L20,469L61,468Z" fill="#89b1d8" stroke="#89b1d8" stroke-width="1.51"/><path d="M100,553L145,558L152,534Z" fill="#5f94c6" stroke="#5f94c6" stroke-width="1.51"/><path d="M366,374L373,339L329,350Z" fill="#4080bb" stroke="#4080bb" stroke-width="1.51"/><path d="M351,303L382,252L323,254Z" fill="#588cc1" stroke="#588cc1" stroke-width="1.51"/><path d="M303,178L282,200L348,197Z" fill="#70a0ce" stroke="#70a0ce" stroke-width="1.51"/><path d="M24,516L63,519L61,468Z" fill="#80a7d3" stroke="#80a7d3" stroke-width="1.51"/><path d="M152,534L145,558L195,554Z" fill="#518dc4" stroke="#518dc4" stroke-width="1.51"/><path d="M100,553L152,534L111,508Z" fill="#6599c9" stroke="#6599c9" stroke-width="1.51"/><path d="M352,435L366,436L366,374Z" fill="#3076b5" stroke="#3076b5" stroke-width="1.51"/><path d="M439,358L384,308L373,339Z" fill="#4077b1" stroke="#4077b1" stroke-width="1.51"/><path d="M321,485L366,436L352,435Z" fill="#2a75b5" stroke="#2a75b5" stroke-width="1.51"/><path d="M394,492L366,436L321,485Z" fill="#266eb1" stroke="#266eb1" stroke-width="1.51"/><path d="M21,348L-16,386L28,392Z" fill="#98c0e0" stroke="#98c0e0" stroke-width="1.51"/><path d="M20,436L-13,466L20,469Z" fill="#8eb4da" stroke="#8eb4da" stroke-width="1.51"/><path d="M-17,349L-16,386L21,348Z" fill="#9ec4e2" stroke="#9ec4e2" stroke-width="1.51"/><path d="M-17,349L21,348L25,302Z" fill="#a0c7e4" stroke="#a0c7e4" stroke-width="1.51"/><path d="M-29,303L-17,349L25,302Z" fill="#a5cbe6" stroke="#a5cbe6" stroke-width="1.51"/><path d="M195,554L233,558L209,522Z" fill="#3f84be" stroke="#3f84be" stroke-width="1.51"/><path d="M279,573L233,558L243,622Z" fill="#2e76b5" stroke="#2e76b5" stroke-width="1.51"/><path d="M102,201L76,194L57,253Z" fill="#a9cfe4" stroke="#a9cfe4" stroke-width="1.51"/><path d="M99,169L149,221L167,147Z" fill="#9dc8e2" stroke="#9dc8e2" stroke-width="1.51"/><path d="M63,519L100,553L111,508Z" fill="#709dcd" stroke="#709dcd" stroke-width="1.51"/><path d="M-16,386L-16,429L28,392Z" fill="#96bedf" stroke="#96bedf" stroke-width="1.51"/><path d="M20,469L24,516L61,468Z" fill="#86acd6" stroke="#86acd6" stroke-width="1.51"/><path d="M-57,399L-16,429L-16,386Z" fill="#9bc1e1" stroke="#9bc1e1" stroke-width="1.51"/><path d="M373,339L384,308L351,303Z" fill="#4782bb" stroke="#4782bb" stroke-width="1.51"/><path d="M348,197L282,200L297,243Z" fill="#6b9ecc" stroke="#6b9ecc" stroke-width="1.51"/><path d="M428,389L373,339L366,374Z" fill="#3a76b2" stroke="#3a76b2" stroke-width="1.51"/><path d="M255,198L233,161L208,204Z" fill="#7fb3d8" stroke="#7fb3d8" stroke-width="1.51"/><path d="M303,178L233,161L255,198Z" fill="#7aadd5" stroke="#7aadd5" stroke-width="1.51"/><path d="M32,264L-6,268L25,302Z" fill="#aacee7" stroke="#aacee7" stroke-width="1.51"/><path d="M-7,210L-6,268L32,264Z" fill="#b3d3e9" stroke="#b3d3e9" stroke-width="1.51"/><path d="M76,194L29,204L57,253Z" fill="#b0d1e7" stroke="#b0d1e7" stroke-width="1.51"/><path d="M167,147L149,221L208,204Z" fill="#8ebfde" stroke="#8ebfde" stroke-width="1.51"/><path d="M233,161L213,150L208,204Z" fill="#86b8db" stroke="#86b8db" stroke-width="1.51"/><path d="M213,150L167,147L208,204Z" fill="#8dbddd" stroke="#8dbddd" stroke-width="1.51"/><path d="M-13,466L24,516L20,469Z" fill="#8aaed7" stroke="#8aaed7" stroke-width="1.51"/><path d="M63,519L58,570L100,553Z" fill="#759dcc" stroke="#759dcc" stroke-width="1.51"/><path d="M-16,429L-13,466L20,436Z" fill="#91b7dc" stroke="#91b7dc" stroke-width="1.51"/><path d="M-17,349L-57,399L-16,386Z" fill="#a0c5e3" stroke="#a0c5e3" stroke-width="1.51"/><path d="M-16,429L-63,483L-13,466Z" fill="#95b7dc" stroke="#95b7dc" stroke-width="1.51"/><path d="M-6,268L-29,303L25,302Z" fill="#abcee7" stroke="#abcee7" stroke-width="1.51"/><path d="M55,164L29,204L76,194Z" fill="#b6d4e9" stroke="#b6d4e9" stroke-width="1.51"/><path d="M-71,266L-53,306L-29,303Z" fill="#b4d4ea" stroke="#b4d4ea" stroke-width="1.51"/><path d="M282,200L303,178L255,198Z" fill="#75a8d2" stroke="#75a8d2" stroke-width="1.51"/><path d="M233,161L252,124L213,150Z" fill="#89b7da" stroke="#89b7da" stroke-width="1.51"/><path d="M348,197L297,243L323,254Z" fill="#6599c9" stroke="#6599c9" stroke-width="1.51"/><path d="M296,513L325,537L321,485Z" fill="#2372b6" stroke="#2372b6" stroke-width="1.51"/><path d="M279,573L325,537L296,513Z" fill="#2471b4" stroke="#2471b4" stroke-width="1.51"/><path d="M384,308L382,252L351,303Z" fill="#5084bc" stroke="#5084bc" stroke-width="1.51"/><path d="M172,599L195,554L145,558Z" fill="#4d88c0" stroke="#4d88c0" stroke-width="1.51"/><path d="M195,599L233,558L195,554Z" fill="#3f81bc" stroke="#3f81bc" stroke-width="1.51"/><path d="M233,558L279,573L296,513Z" fill="#2c77b7" stroke="#2c77b7" stroke-width="1.51"/><path d="M100,607L172,599L145,558Z" fill="#5a8cc0" stroke="#5a8cc0" stroke-width="1.51"/><path d="M100,607L145,558L100,553Z" fill="#6593c5" stroke="#6593c5" stroke-width="1.51"/><path d="M172,599L195,599L195,554Z" fill="#4583bc" stroke="#4583bc" stroke-width="1.51"/><path d="M382,252L348,197L323,254Z" fill="#6291c3" stroke="#6291c3" stroke-width="1.51"/><path d="M99,169L55,164L76,194Z" fill="#b2d2e8" stroke="#b2d2e8" stroke-width="1.51"/><path d="M82,110L55,164L99,169Z" fill="#b7d5e9" stroke="#b7d5e9" stroke-width="1.51"/><path d="M24,516L58,570L63,519Z" fill="#7da1d0" stroke="#7da1d0" stroke-width="1.51"/><path d="M27,582L58,570L24,516Z" fill="#7e9fce" stroke="#7e9fce" stroke-width="1.51"/><path d="M366,436L416,419L366,374Z" fill="#2f72b1" stroke="#2f72b1" stroke-width="1.51"/><path d="M384,308L434,287L382,252Z" fill="#4f7eb4" stroke="#4f7eb4" stroke-width="1.51"/><path d="M394,492L416,419L366,436Z" fill="#276aaa" stroke="#276aaa" stroke-width="1.51"/><path d="M-77,339L-57,399L-17,349Z" fill="#a7c9e5" stroke="#a7c9e5" stroke-width="1.51"/><path d="M-29,303L-53,306L-17,349Z" fill="#aacee7" stroke="#aacee7" stroke-width="1.51"/><path d="M-71,266L-29,303L-6,268Z" fill="#b4d3ea" stroke="#b4d3ea" stroke-width="1.51"/><path d="M-7,210L32,264L29,204Z" fill="#b6d5e9" stroke="#b6d5e9" stroke-width="1.51"/><path d="M27,166L-7,210L29,204Z" fill="#bcd8eb" stroke="#bcd8eb" stroke-width="1.51"/><path d="M416,419L428,389L366,374Z" fill="#326eab" stroke="#326eab" stroke-width="1.51"/><path d="M384,535L394,492L321,485Z" fill="#1e67ad" stroke="#1e67ad" stroke-width="1.51"/><path d="M416,419L442,487L428,389Z" fill="#28639e" stroke="#28639e" stroke-width="1.51"/><path d="M384,535L321,485L325,537Z" fill="#1d6aaf" stroke="#1d6aaf" stroke-width="1.51"/><path d="M348,197L329,162L303,178Z" fill="#719ccc" stroke="#719ccc" stroke-width="1.51"/><path d="M303,178L252,124L233,161Z" fill="#80afd6" stroke="#80afd6" stroke-width="1.51"/><path d="M369,192L329,162L348,197Z" fill="#6d96c7" stroke="#6d96c7" stroke-width="1.51"/><path d="M187,102L167,114L167,147Z" fill="#9cc6e3" stroke="#9cc6e3" stroke-width="1.51"/><path d="M167,147L113,119L99,169Z" fill="#a8cde5" stroke="#a8cde5" stroke-width="1.51"/><path d="M306,133L252,124L303,178Z" fill="#7ea9d4" stroke="#7ea9d4" stroke-width="1.51"/><path d="M187,102L167,147L213,150Z" fill="#95c1e1" stroke="#95c1e1" stroke-width="1.51"/><path d="M55,164L27,166L29,204Z" fill="#bcd7eb" stroke="#bcd7eb" stroke-width="1.51"/><path d="M21,118L27,166L55,164Z" fill="#c2daed" stroke="#c2daed" stroke-width="1.51"/><path d="M382,252L369,192L348,197Z" fill="#658fc2" stroke="#658fc2" stroke-width="1.51"/><path d="M419,199L369,192L382,252Z" fill="#6289bc" stroke="#6289bc" stroke-width="1.51"/><path d="M167,114L113,119L167,147Z" fill="#a4cae4" stroke="#a4cae4" stroke-width="1.51"/><path d="M58,570L100,607L100,553Z" fill="#6e96c7" stroke="#6e96c7" stroke-width="1.51"/><path d="M202,656L243,622L195,599Z" fill="#3977b4" stroke="#3977b4" stroke-width="1.51"/><path d="M428,389L439,358L373,339Z" fill="#3970a9" stroke="#3970a9" stroke-width="1.51"/><path d="M442,487L439,358L428,389Z" fill="#2b649d" stroke="#2b649d" stroke-width="1.51"/><path d="M279,573L348,563L325,537Z" fill="#1d6ab0" stroke="#1d6ab0" stroke-width="1.51"/><path d="M334,600L348,563L279,573Z" fill="#1a66ad" stroke="#1a66ad" stroke-width="1.51"/><path d="M-53,306L-77,339L-17,349Z" fill="#abcde7" stroke="#abcde7" stroke-width="1.51"/><path d="M-71,266L-77,339L-53,306Z" fill="#b4d4ea" stroke="#b4d4ea" stroke-width="1.51"/><path d="M252,124L187,102L213,150Z" fill="#90bcde" stroke="#90bcde" stroke-width="1.51"/><path d="M167,114L166,64L113,119Z" fill="#a9cce6" stroke="#a9cce6" stroke-width="1.51"/><path d="M329,162L306,133L303,178Z" fill="#77a1d0" stroke="#77a1d0" stroke-width="1.51"/><path d="M238,82L186,85L187,102Z" fill="#99c2e1" stroke="#99c2e1" stroke-width="1.51"/><path d="M335,118L306,133L329,162Z" fill="#7ba1cf" stroke="#7ba1cf" stroke-width="1.51"/><path d="M439,358L434,287L384,308Z" fill="#4274aa" stroke="#4274aa" stroke-width="1.51"/><path d="M394,492L442,487L416,419Z" fill="#2360a0" stroke="#2360a0" stroke-width="1.51"/><path d="M348,563L384,535L325,537Z" fill="#1964ab" stroke="#1964ab" stroke-width="1.51"/><path d="M195,599L243,622L233,558Z" fill="#387ab7" stroke="#387ab7" stroke-width="1.51"/><path d="M202,656L195,599L172,599Z" fill="#427db8" stroke="#427db8" stroke-width="1.51"/><path d="M-21,552L24,516L-37,536Z" fill="#89a9d4" stroke="#89a9d4" stroke-width="1.51"/><path d="M-21,552L27,582L24,516Z" fill="#84a3d1" stroke="#84a3d1" stroke-width="1.51"/><path d="M58,570L62,623L100,607Z" fill="#7193c5" stroke="#7193c5" stroke-width="1.51"/><path d="M439,358L433,264L434,287Z" fill="#4571a5" stroke="#4571a5" stroke-width="1.51"/><path d="M434,287L433,264L382,252Z" fill="#517bae" stroke="#517bae" stroke-width="1.51"/><path d="M348,563L393,580L384,535Z" fill="#145ca5" stroke="#145ca5" stroke-width="1.51"/><path d="M243,622L305,606L279,573Z" fill="#266eb0" stroke="#266eb0" stroke-width="1.51"/><path d="M-52,202L-71,266L-6,268Z" fill="#bdd9ec" stroke="#bdd9ec" stroke-width="1.51"/><path d="M-52,202L-6,268L-7,210Z" fill="#bdd9eb" stroke="#bdd9eb" stroke-width="1.51"/><path d="M-57,399L-83,425L-16,429Z" fill="#9dc1e1" stroke="#9dc1e1" stroke-width="1.51"/><path d="M-77,339L-83,425L-57,399Z" fill="#a7c8e4" stroke="#a7c8e4" stroke-width="1.51"/><path d="M-83,425L-63,483L-16,429Z" fill="#9bbddf" stroke="#9bbddf" stroke-width="1.51"/><path d="M75,77L82,110L111,59Z" fill="#bed8ec" stroke="#bed8ec" stroke-width="1.51"/><path d="M113,119L82,110L99,169Z" fill="#b4d3e8" stroke="#b4d3e8" stroke-width="1.51"/><path d="M-37,536L24,516L-13,466Z" fill="#8badd7" stroke="#8badd7" stroke-width="1.51"/><path d="M-63,483L-52,512L-13,466Z" fill="#94b4db" stroke="#94b4db" stroke-width="1.51"/><path d="M-52,512L-37,536L-13,466Z" fill="#91b0d8" stroke="#91b0d8" stroke-width="1.51"/><path d="M107,645L152,643L100,607Z" fill="#5f88bb" stroke="#5f88bb" stroke-width="1.51"/><path d="M100,607L152,643L172,599Z" fill="#5786bc" stroke="#5786bc" stroke-width="1.51"/><path d="M187,102L186,85L167,114Z" fill="#9dc6e3" stroke="#9dc6e3" stroke-width="1.51"/><path d="M238,82L187,102L252,124Z" fill="#92bbde" stroke="#92bbde" stroke-width="1.51"/><path d="M305,606L334,600L279,573Z" fill="#1d67ad" stroke="#1d67ad" stroke-width="1.51"/><path d="M324,667L334,600L305,606Z" fill="#165fa7" stroke="#165fa7" stroke-width="1.51"/><path d="M419,199L385,168L369,192Z" fill="#688bbd" stroke="#688bbd" stroke-width="1.51"/><path d="M369,192L385,168L329,162Z" fill="#6e94c6" stroke="#6e94c6" stroke-width="1.51"/><path d="M38,614L62,623L58,570Z" fill="#7795c7" stroke="#7795c7" stroke-width="1.51"/><path d="M38,614L58,570L27,582Z" fill="#7b99ca" stroke="#7b99ca" stroke-width="1.51"/><path d="M-28,153L-7,210L27,166Z" fill="#c3dbee" stroke="#c3dbee" stroke-width="1.51"/><path d="M-28,153L-52,202L-7,210Z" fill="#c6deee" stroke="#c6deee" stroke-width="1.51"/><path d="M439,534L442,487L394,492Z" fill="#1b589a" stroke="#1b589a" stroke-width="1.51"/><path d="M439,534L394,492L384,535Z" fill="#175b9f" stroke="#175b9f" stroke-width="1.51"/><path d="M-16,603L27,582L-21,552Z" fill="#85a0ce" stroke="#85a0ce" stroke-width="1.51"/><path d="M-16,603L38,614L27,582Z" fill="#7f9aca" stroke="#7f9aca" stroke-width="1.51"/><path d="M289,63L252,124L306,133Z" fill="#86aed7" stroke="#86aed7" stroke-width="1.51"/><path d="M289,63L238,82L252,124Z" fill="#8cb5da" stroke="#8cb5da" stroke-width="1.51"/><path d="M433,264L419,199L382,252Z" fill="#5a80b2" stroke="#5a80b2" stroke-width="1.51"/><path d="M57,655L107,645L62,623Z" fill="#6d8cbe" stroke="#6d8cbe" stroke-width="1.51"/><path d="M62,623L107,645L100,607Z" fill="#6a8dc0" stroke="#6a8dc0" stroke-width="1.51"/><path d="M389,119L335,118L385,168Z" fill="#7695c6" stroke="#7695c6" stroke-width="1.51"/><path d="M385,168L335,118L329,162Z" fill="#7599c9" stroke="#7599c9" stroke-width="1.51"/><path d="M243,622L298,654L305,606Z" fill="#2368ab" stroke="#2368ab" stroke-width="1.51"/><path d="M152,643L202,656L172,599Z" fill="#467db7" stroke="#467db7" stroke-width="1.51"/><path d="M153,702L202,656L152,643Z" fill="#4778ae" stroke="#4778ae" stroke-width="1.51"/><path d="M82,110L21,118L55,164Z" fill="#c2d9ed" stroke="#c2d9ed" stroke-width="1.51"/><path d="M75,77L21,118L82,110Z" fill="#c4dbee" stroke="#c4dbee" stroke-width="1.51"/><path d="M21,118L-28,153L27,166Z" fill="#c8ddef" stroke="#c8ddef" stroke-width="1.51"/><path d="M202,656L244,658L243,622Z" fill="#3370ad" stroke="#3370ad" stroke-width="1.51"/><path d="M186,85L166,64L167,114Z" fill="#a1c8e4" stroke="#a1c8e4" stroke-width="1.51"/><path d="M193,44L166,64L186,85Z" fill="#a1c8e5" stroke="#a1c8e5" stroke-width="1.51"/><path d="M334,600L393,580L348,563Z" fill="#145da6" stroke="#145da6" stroke-width="1.51"/><path d="M386,624L393,580L334,600Z" fill="#0f57a1" stroke="#0f57a1" stroke-width="1.51"/><path d="M-82,106L-66,171L-28,153Z" fill="#d4e5f4" stroke="#d4e5f4" stroke-width="1.51"/><path d="M111,59L82,110L113,119Z" fill="#b8d6ea" stroke="#b8d6ea" stroke-width="1.51"/><path d="M419,199L425,177L385,168Z" fill="#6786b6" stroke="#6786b6" stroke-width="1.51"/><path d="M433,264L425,177L419,199Z" fill="#5e7fae" stroke="#5e7fae" stroke-width="1.51"/><path d="M436,554L439,534L384,535Z" fill="#145498" stroke="#145498" stroke-width="1.51"/><path d="M38,614L57,655L62,623Z" fill="#7590c3" stroke="#7590c3" stroke-width="1.51"/><path d="M-70,580L-16,603L-21,552Z" fill="#8ba3d0" stroke="#8ba3d0" stroke-width="1.51"/><path d="M-70,580L-21,552L-37,536Z" fill="#8ea8d3" stroke="#8ea8d3" stroke-width="1.51"/><path d="M244,658L298,654L243,622Z" fill="#2869a9" stroke="#2869a9" stroke-width="1.51"/><path d="M166,64L111,59L113,119Z" fill="#b1d2e8" stroke="#b1d2e8" stroke-width="1.51"/><path d="M-52,202L-66,171L-71,266Z" fill="#c8e0ef" stroke="#c8e0ef" stroke-width="1.51"/><path d="M-71,266L-82,106L-77,339Z" fill="#c5deee" stroke="#c5deee" stroke-width="1.51"/><path d="M-77,339L-82,106L-83,425Z" fill="#bad7ec" stroke="#bad7ec" stroke-width="1.51"/><path d="M-28,153L-66,171L-52,202Z" fill="#cce1f0" stroke="#cce1f0" stroke-width="1.51"/><path d="M-22,105L-28,153L21,118Z" fill="#cfe1f2" stroke="#cfe1f2" stroke-width="1.51"/><path d="M16,658L57,655L38,614Z" fill="#7790c1" stroke="#7790c1" stroke-width="1.51"/><path d="M107,645L153,702L152,643Z" fill="#557fb2" stroke="#557fb2" stroke-width="1.51"/><path d="M259,697L298,654L244,658Z" fill="#2663a3" stroke="#2663a3" stroke-width="1.51"/><path d="M418,623L436,554L393,580Z" fill="#0f4e94" stroke="#0f4e94" stroke-width="1.51"/><path d="M393,580L436,554L384,535Z" fill="#12569b" stroke="#12569b" stroke-width="1.51"/><path d="M335,118L289,63L306,133Z" fill="#82a6d3" stroke="#82a6d3" stroke-width="1.51"/><path d="M238,82L193,44L186,85Z" fill="#9ac2e2" stroke="#9ac2e2" stroke-width="1.51"/><path d="M172,20L101,34L111,59Z" fill="#b7d6ea" stroke="#b7d6ea" stroke-width="1.51"/><path d="M338,57L289,63L335,118Z" fill="#84a5d3" stroke="#84a5d3" stroke-width="1.51"/><path d="M254,44L193,44L238,82Z" fill="#97bfdf" stroke="#97bfdf" stroke-width="1.51"/><path d="M412,131L389,119L385,168Z" fill="#728dbf" stroke="#728dbf" stroke-width="1.51"/><path d="M389,119L369,87L335,118Z" fill="#7b98c9" stroke="#7b98c9" stroke-width="1.51"/><path d="M425,177L412,131L385,168Z" fill="#6c88b8" stroke="#6c88b8" stroke-width="1.51"/><path d="M289,63L254,44L238,82Z" fill="#8fb6db" stroke="#8fb6db" stroke-width="1.51"/><path d="M324,667L386,624L334,600Z" fill="#1157a0" stroke="#1157a0" stroke-width="1.51"/><path d="M-6,84L-22,105L21,118Z" fill="#d1e2f2" stroke="#d1e2f2" stroke-width="1.51"/><path d="M7,80L21,118L75,77Z" fill="#cbdef0" stroke="#cbdef0" stroke-width="1.51"/><path d="M-52,512L-70,580L-37,536Z" fill="#91abd6" stroke="#91abd6" stroke-width="1.51"/><path d="M-16,603L16,658L38,614Z" fill="#7e96c7" stroke="#7e96c7" stroke-width="1.51"/><path d="M-63,483L-70,580L-52,512Z" fill="#94b0d8" stroke="#94b0d8" stroke-width="1.51"/><path d="M-83,425L-70,580L-63,483Z" fill="#99b6db" stroke="#99b6db" stroke-width="1.51"/><path d="M298,654L324,667L305,606Z" fill="#195fa4" stroke="#195fa4" stroke-width="1.51"/><path d="M305,689L324,667L298,654Z" fill="#185a9d" stroke="#185a9d" stroke-width="1.51"/><path d="M259,697L244,658L211,714Z" fill="#2d67a1" stroke="#2d67a1" stroke-width="1.51"/><path d="M72,44L7,80L75,77Z" fill="#cbdef1" stroke="#cbdef1" stroke-width="1.51"/><path d="M289,63L292,35L254,44Z" fill="#8fb3da" stroke="#8fb3da" stroke-width="1.51"/><path d="M429,70L369,87L389,119Z" fill="#7990c1" stroke="#7990c1" stroke-width="1.51"/><path d="M119,708L153,702L107,645Z" fill="#587cad" stroke="#587cad" stroke-width="1.51"/><path d="M-22,655L16,658L-16,603Z" fill="#8096c4" stroke="#8096c4" stroke-width="1.51"/><path d="M7,80L-6,84L21,118Z" fill="#d0e1f2" stroke="#d0e1f2" stroke-width="1.51"/><path d="M119,708L107,645L56,701Z" fill="#6381b0" stroke="#6381b0" stroke-width="1.51"/><path d="M7,80L-29,13L-6,84Z" fill="#d7e6f5" stroke="#d7e6f5" stroke-width="1.51"/><path d="M111,59L72,44L75,77Z" fill="#c1daed" stroke="#c1daed" stroke-width="1.51"/><path d="M101,34L72,44L111,59Z" fill="#c0dbed" stroke="#c0dbed" stroke-width="1.51"/><path d="M172,20L111,59L166,64Z" fill="#aed0e8" stroke="#aed0e8" stroke-width="1.51"/><path d="M172,20L166,64L193,44Z" fill="#a6cbe6" stroke="#a6cbe6" stroke-width="1.51"/><path d="M211,714L244,658L202,656Z" fill="#356da7" stroke="#356da7" stroke-width="1.51"/><path d="M173,-15L172,20L205,-31Z" fill="#aacee7" stroke="#aacee7" stroke-width="1.51"/><path d="M369,87L338,57L335,118Z" fill="#809ecd" stroke="#809ecd" stroke-width="1.51"/><path d="M205,-31L172,20L193,44Z" fill="#a6cbe6" stroke="#a6cbe6" stroke-width="1.51"/><path d="M420,671L418,623L386,624Z" fill="#09478e" stroke="#09478e" stroke-width="1.51"/><path d="M259,697L305,689L298,654Z" fill="#1f5d9e" stroke="#1f5d9e" stroke-width="1.51"/><path d="M324,43L292,35L289,63Z" fill="#8badd7" stroke="#8badd7" stroke-width="1.51"/><path d="M153,702L211,714L202,656Z" fill="#3e70a6" stroke="#3e70a6" stroke-width="1.51"/><path d="M56,701L107,645L57,655Z" fill="#6b87b7" stroke="#6b87b7" stroke-width="1.51"/><path d="M375,670L386,624L324,667Z" fill="#0e5097" stroke="#0e5097" stroke-width="1.51"/><path d="M386,624L418,623L393,580Z" fill="#0b4e97" stroke="#0b4e97" stroke-width="1.51"/><path d="M327,735L342,703L305,689Z" fill="#144f91" stroke="#144f91" stroke-width="1.51"/><path d="M199,739L211,714L153,702Z" fill="#3d6b9f" stroke="#3d6b9f" stroke-width="1.51"/><path d="M338,57L324,43L289,63Z" fill="#87a8d4" stroke="#87a8d4" stroke-width="1.51"/><path d="M373,22L324,43L338,57Z" fill="#86a2d0" stroke="#86a2d0" stroke-width="1.51"/><path d="M16,658L26,686L57,655Z" fill="#768cbb" stroke="#768cbb" stroke-width="1.51"/><path d="M-77,617L-22,655L-16,603Z" fill="#879bca" stroke="#879bca" stroke-width="1.51"/><path d="M-19,703L26,686L16,658Z" fill="#798bb8" stroke="#798bb8" stroke-width="1.51"/><path d="M26,686L56,701L57,655Z" fill="#7288b6" stroke="#7288b6" stroke-width="1.51"/><path d="M342,703L375,670L324,667Z" fill="#114f94" stroke="#114f94" stroke-width="1.51"/><path d="M-70,580L-77,617L-16,603Z" fill="#8da1ce" stroke="#8da1ce" stroke-width="1.51"/><path d="M-83,425L-77,617L-70,580Z" fill="#95aed7" stroke="#95aed7" stroke-width="1.51"/><path d="M-66,171L-82,106L-71,266Z" fill="#cfe3f1" stroke="#cfe3f1" stroke-width="1.51"/><path d="M-22,105L-82,106L-28,153Z" fill="#d6e5f5" stroke="#d6e5f5" stroke-width="1.51"/><path d="M-56,59L-82,106L-22,105Z" fill="#dce9f6" stroke="#dce9f6" stroke-width="1.51"/><path d="M-56,59L-22,105L-6,84Z" fill="#d8e7f5" stroke="#d8e7f5" stroke-width="1.51"/><path d="M172,20L116,-1L101,34Z" fill="#b9d7ea" stroke="#b9d7ea" stroke-width="1.51"/><path d="M101,34L60,-6L72,44Z" fill="#c8deef" stroke="#c8deef" stroke-width="1.51"/><path d="M72,44L25,26L7,80Z" fill="#d0e2f2" stroke="#d0e2f2" stroke-width="1.51"/><path d="M173,-15L116,-1L172,20Z" fill="#b3d3e9" stroke="#b3d3e9" stroke-width="1.51"/><path d="M60,-6L25,26L72,44Z" fill="#d0e1f3" stroke="#d0e1f3" stroke-width="1.51"/><path d="M305,689L342,703L324,667Z" fill="#155397" stroke="#155397" stroke-width="1.51"/><path d="M327,735L305,689L287,755Z" fill="#195190" stroke="#195190" stroke-width="1.51"/><path d="M211,714L235,753L259,697Z" fill="#2d6299" stroke="#2d6299" stroke-width="1.51"/><path d="M141,745L199,739L153,702Z" fill="#466ea1" stroke="#466ea1" stroke-width="1.51"/><path d="M141,745L153,702L119,708Z" fill="#5175a4" stroke="#5175a4" stroke-width="1.51"/><path d="M56,701L83,731L119,708Z" fill="#637daa" stroke="#637daa" stroke-width="1.51"/><path d="M26,742L83,731L56,701Z" fill="#6c7faa" stroke="#6c7faa" stroke-width="1.51"/><path d="M26,742L56,701L26,686Z" fill="#7183af" stroke="#7183af" stroke-width="1.51"/><path d="M-19,703L16,658L-22,655Z" fill="#7d8fbb" stroke="#7d8fbb" stroke-width="1.51"/><path d="M254,-13L254,44L292,35Z" fill="#94b8dc" stroke="#94b8dc" stroke-width="1.51"/><path d="M254,-13L193,44L254,44Z" fill="#99c0e0" stroke="#99c0e0" stroke-width="1.51"/><path d="M-77,617L-61,657L-22,655Z" fill="#899ac6" stroke="#899ac6" stroke-width="1.51"/><path d="M115,752L141,745L119,708Z" fill="#5576a4" stroke="#5576a4" stroke-width="1.51"/><path d="M290,-7L254,-13L292,35Z" fill="#94b6db" stroke="#94b6db" stroke-width="1.51"/><path d="M324,43L290,-7L292,35Z" fill="#8eaed8" stroke="#8eaed8" stroke-width="1.51"/><path d="M369,87L373,22L338,57Z" fill="#829dcc" stroke="#829dcc" stroke-width="1.51"/><path d="M412,131L429,70L389,119Z" fill="#758cbb" stroke="#758cbb" stroke-width="1.51"/><path d="M425,177L429,70L412,131Z" fill="#7187b5" stroke="#7187b5" stroke-width="1.51"/><path d="M433,264L429,70L425,177Z" fill="#6781af" stroke="#6781af" stroke-width="1.51"/><path d="M432,17L429,70L433,264Z" fill="#7184b2" stroke="#7184b2" stroke-width="1.51"/><path d="M343,-26L290,-7L324,43Z" fill="#8eabd6" stroke="#8eabd6" stroke-width="1.51"/><path d="M-52,36L-56,59L-6,84Z" fill="#dce9f7" stroke="#dce9f7" stroke-width="1.51"/><path d="M372,710L420,671L375,670Z" fill="#09458a" stroke="#09458a" stroke-width="1.51"/><path d="M375,670L420,671L386,624Z" fill="#09488f" stroke="#09488f" stroke-width="1.51"/><path d="M418,623L430,694L436,554Z" fill="#09458a" stroke="#09458a" stroke-width="1.51"/><path d="M436,554L430,694L439,534Z" fill="#0d488c" stroke="#0d488c" stroke-width="1.51"/><path d="M127,-57L60,-6L116,-1Z" fill="#c7dfee" stroke="#c7dfee" stroke-width="1.51"/><path d="M116,-1L60,-6L101,34Z" fill="#c5ddee" stroke="#c5ddee" stroke-width="1.51"/><path d="M-29,13L-52,36L-6,84Z" fill="#ddeaf7" stroke="#ddeaf7" stroke-width="1.51"/><path d="M199,739L235,753L211,714Z" fill="#34659b" stroke="#34659b" stroke-width="1.51"/><path d="M342,703L372,710L375,670Z" fill="#0d498e" stroke="#0d498e" stroke-width="1.51"/><path d="M141,745L235,753L199,739Z" fill="#3b699e" stroke="#3b699e" stroke-width="1.51"/><path d="M429,70L373,22L369,87Z" fill="#7e94c4" stroke="#7e94c4" stroke-width="1.51"/><path d="M141,745L115,752L235,753Z" fill="#466fa1" stroke="#466fa1" stroke-width="1.51"/><path d="M83,731L115,752L119,708Z" fill="#5c79a5" stroke="#5c79a5" stroke-width="1.51"/><path d="M26,742L115,752L83,731Z" fill="#667da8" stroke="#667da8" stroke-width="1.51"/><path d="M-61,657L-19,703L-22,655Z" fill="#8292bd" stroke="#8292bd" stroke-width="1.51"/><path d="M327,735L372,710L342,703Z" fill="#10498b" stroke="#10498b" stroke-width="1.51"/><path d="M262,-54L205,-31L254,-13Z" fill="#9fc3e2" stroke="#9fc3e2" stroke-width="1.51"/><path d="M254,-13L205,-31L193,44Z" fill="#a0c5e3" stroke="#a0c5e3" stroke-width="1.51"/><path d="M173,-15L159,-48L116,-1Z" fill="#b7d6ea" stroke="#b7d6ea" stroke-width="1.51"/><path d="M287,755L305,689L259,697Z" fill="#1f5895" stroke="#1f5895" stroke-width="1.51"/><path d="M-29,13L7,80L25,26Z" fill="#d8e7f4" stroke="#d8e7f4" stroke-width="1.51"/><path d="M-56,59L-78,-11L-82,106Z" fill="#e4eef9" stroke="#e4eef9" stroke-width="1.51"/><path d="M235,753L287,755L259,697Z" fill="#265c96" stroke="#265c96" stroke-width="1.51"/><path d="M115,752L287,755L235,753Z" fill="#35659b" stroke="#35659b" stroke-width="1.51"/><path d="M-19,703L26,742L26,686Z" fill="#7686b0" stroke="#7686b0" stroke-width="1.51"/><path d="M13,-74L10,-6L60,-6Z" fill="#dbe8f6" stroke="#dbe8f6" stroke-width="1.51"/><path d="M60,-6L10,-6L25,26Z" fill="#d6e5f5" stroke="#d6e5f5" stroke-width="1.51"/><path d="M10,-6L-29,13L25,26Z" fill="#dbe8f6" stroke="#dbe8f6" stroke-width="1.51"/><path d="M-19,703L-25,734L26,742Z" fill="#7785ae" stroke="#7785ae" stroke-width="1.51"/><path d="M-61,657L-71,688L-19,703Z" fill="#8492bb" stroke="#8492bb" stroke-width="1.51"/><path d="M-77,617L-71,688L-61,657Z" fill="#8b99c4" stroke="#8b99c4" stroke-width="1.51"/><path d="M426,743L430,694L372,710Z" fill="#093a7b" stroke="#093a7b" stroke-width="1.51"/><path d="M372,710L430,694L420,671Z" fill="#093f81" stroke="#093f81" stroke-width="1.51"/><path d="M420,671L430,694L418,623Z" fill="#094083" stroke="#094083" stroke-width="1.51"/><path d="M439,534L430,694L442,487Z" fill="#104b8e" stroke="#104b8e" stroke-width="1.51"/><path d="M388,751L372,710L327,735Z" fill="#0d4586" stroke="#0d4586" stroke-width="1.51"/><path d="M205,-31L159,-48L173,-15Z" fill="#aed0e9" stroke="#aed0e9" stroke-width="1.51"/><path d="M212,-64L159,-48L205,-31Z" fill="#adcee8" stroke="#adcee8" stroke-width="1.51"/><path d="M387,-17L343,-26L373,22Z" fill="#89a0cd" stroke="#89a0cd" stroke-width="1.51"/><path d="M373,22L343,-26L324,43Z" fill="#89a3d0" stroke="#89a3d0" stroke-width="1.51"/><path d="M290,-7L262,-54L254,-13Z" fill="#9abbde" stroke="#9abbde" stroke-width="1.51"/><path d="M-67,737L-25,734L-19,703Z" fill="#7d89b0" stroke="#7d89b0" stroke-width="1.51"/><path d="M159,-48L127,-57L116,-1Z" fill="#bedaec" stroke="#bedaec" stroke-width="1.51"/><path d="M212,-64L127,-57L159,-48Z" fill="#b6d5eb" stroke="#b6d5eb" stroke-width="1.51"/><path d="M283,-69L262,-54L290,-7Z" fill="#9abadd" stroke="#9abadd" stroke-width="1.51"/><path d="M10,-6L-36,-2L-29,13Z" fill="#e0ecf8" stroke="#e0ecf8" stroke-width="1.51"/><path d="M-29,13L-36,-2L-52,36Z" fill="#e1edf8" stroke="#e1edf8" stroke-width="1.51"/><path d="M-52,36L-78,-11L-56,59Z" fill="#e5eff9" stroke="#e5eff9" stroke-width="1.51"/><path d="M-28,-55L-36,-2L10,-6Z" fill="#e3edf9" stroke="#e3edf9" stroke-width="1.51"/><path d="M435,-62L432,17L439,358Z" fill="#7284b1" stroke="#7284b1" stroke-width="1.51"/><path d="M439,358L432,17L433,264Z" fill="#5d7daa" stroke="#5d7daa" stroke-width="1.51"/><path d="M429,70L432,17L373,22Z" fill="#7e90bd" stroke="#7e90bd" stroke-width="1.51"/><path d="M262,-54L212,-64L205,-31Z" fill="#a5c7e4" stroke="#a5c7e4" stroke-width="1.51"/><path d="M427,-5L387,-17L373,22Z" fill="#8497c4" stroke="#8497c4" stroke-width="1.51"/><path d="M326,-64L283,-69L290,-7Z" fill="#97b4db" stroke="#97b4db" stroke-width="1.51"/><path d="M287,755L388,751L327,735Z" fill="#124b8c" stroke="#124b8c" stroke-width="1.51"/><path d="M432,17L427,-5L373,22Z" fill="#8192be" stroke="#8192be" stroke-width="1.51"/><path d="M262,-54L283,-69L212,-64Z" fill="#a1c2e1" stroke="#a1c2e1" stroke-width="1.51"/><path d="M326,-64L290,-7L343,-26Z" fill="#92aed7" stroke="#92aed7" stroke-width="1.51"/><path d="M326,-64L343,-26L377,-61Z" fill="#91a7d2" stroke="#91a7d2" stroke-width="1.51"/><path d="M-71,688L-67,737L-19,703Z" fill="#818cb5" stroke="#818cb5" stroke-width="1.51"/><path d="M-25,734L-67,737L26,742Z" fill="#7a87af" stroke="#7a87af" stroke-width="1.51"/><path d="M26,742L-67,737L115,752Z" fill="#7282ac" stroke="#7282ac" stroke-width="1.51"/><path d="M-77,617L-67,737L-71,688Z" fill="#8895bd" stroke="#8895bd" stroke-width="1.51"/><path d="M388,751L426,743L372,710Z" fill="#093d7e" stroke="#093d7e" stroke-width="1.51"/><path d="M377,-61L343,-26L387,-17Z" fill="#8da1ce" stroke="#8da1ce" stroke-width="1.51"/><path d="M127,-57L72,-77L60,-6Z" fill="#cee3f1" stroke="#cee3f1" stroke-width="1.51"/><path d="M212,-64L72,-77L127,-57Z" fill="#c1dced" stroke="#c1dced" stroke-width="1.51"/><path d="M283,-69L72,-77L212,-64Z" fill="#b1d1e9" stroke="#b1d1e9" stroke-width="1.51"/><path d="M-36,-2L-78,-11L-52,36Z" fill="#e6f0fa" stroke="#e6f0fa" stroke-width="1.51"/><path d="M-55,-50L-78,-11L-36,-2Z" fill="#eaf2fb" stroke="#eaf2fb" stroke-width="1.51"/><path d="M435,-62L377,-61L387,-17Z" fill="#8a99c5" stroke="#8a99c5" stroke-width="1.51"/><path d="M326,-64L435,-62L283,-69Z" fill="#93a9d3" stroke="#93a9d3" stroke-width="1.51"/><path d="M13,-74L-28,-55L10,-6Z" fill="#e3edf9" stroke="#e3edf9" stroke-width="1.51"/><path d="M72,-77L13,-74L60,-6Z" fill="#dae8f6" stroke="#dae8f6" stroke-width="1.51"/><path d="M13,-74L-55,-50L-28,-55Z" fill="#e8f1fa" stroke="#e8f1fa" stroke-width="1.51"/><path d="M-28,-55L-55,-50L-36,-2Z" fill="#e8f1fa" stroke="#e8f1fa" stroke-width="1.51"/><path d="M427,-5L435,-62L387,-17Z" fill="#8593be" stroke="#8593be" stroke-width="1.51"/><path d="M377,-61L435,-62L326,-64Z" fill="#8fa0cd" stroke="#8fa0cd" stroke-width="1.51"/><path d="M432,17L435,-62L427,-5Z" fill="#828eb7" stroke="#828eb7" stroke-width="1.51"/><path d="M442,487L435,-62L439,358Z" fill="#5176a6" stroke="#5176a6" stroke-width="1.51"/></svg>